<svg xmlns="http://www.w3.org/2000/svg" viewBox="0 0 592.27 299.5"><defs><style>.cls-1{fill:#6a3846;}.cls-2,.cls-5,.cls-6{fill:none;stroke-miterlimit:10;}.cls-2,.cls-6{stroke:#004162;}.cls-2{stroke-width:1.19px;}.cls-3{fill:#fff;}.cls-4{fill:#f5ca8f;}.cls-5{stroke:#6a3846;stroke-width:1.57px;}.cls-6{stroke-width:1.59px;}.cls-7{fill:#e7a221;}.cls-8{fill:#004162;}.cls-9{fill:#e2e6e8;}.cls-10{fill:#aabdc4;}.cls-11{fill:#231f20;}.cls-12{fill:#4e6682;}.cls-13{fill:#0082bb;}</style></defs><title>WhiteLogo</title><g id="Layer_2" data-name="Layer 2"><g id="Layer_1-2" data-name="Layer 1"><g id="Layer_1-2-2" data-name="Layer 1-2"><path class="cls-1" d="M411.4,114.88A114.29,114.29,0,1,1,297.1.6h0A114.27,114.27,0,0,1,411.4,114.88"/><circle class="cls-2" cx="297.12" cy="114.88" r="114.28"/><path class="cls-3" d="M407.71,114.88A110.6,110.6,0,1,1,297.1,4.29h0A110.59,110.59,0,0,1,407.71,114.88"/><path class="cls-4" d="M373.38,114.88a76.26,76.26,0,1,1-76.26-76.26,76.26,76.26,0,0,1,76.26,76.26h0"/><circle class="cls-5" cx="297.12" cy="114.88" r="76.26"/><path class="cls-1" d="M297.12,8.05A106.83,106.83,0,1,0,404,114.88,106.82,106.82,0,0,0,297.12,8.05h0m47.36,170.77h-94.4a79.38,79.38,0,0,1,47-143.32c43.84,0,79.7,35.54,79.7,79.38a79.27,79.27,0,0,1-32.34,63.94"/><path class="cls-6" d="M297.12,8.05A106.83,106.83,0,1,0,404,114.88,106.82,106.82,0,0,0,297.12,8.05Zm47.36,170.77h-94.4a79.38,79.38,0,0,1,47-143.32c43.84,0,79.7,35.54,79.7,79.38a79.25,79.25,0,0,1-32.3,63.94Z"/><path class="cls-7" d="M212.69,165.53a15,15,0,0,0-1.8,1.07,1.08,1.08,0,0,0-.27.79,8.53,8.53,0,0,0,.64,1.53l0,.15-.46.25h-.16c-.52-1-1-2.07-1.54-3.08s-1.15-2-1.81-3.09l0-.15.46-.25h.16a8.49,8.49,0,0,0,1,1.52,1.17,1.17,0,0,0,.81.19,18.16,18.16,0,0,0,1.88-.92l7.37-4c1.15-.62,3.66-2.09,4.85-2.83a33.36,33.36,0,0,0-1.48-3.07,12.67,12.67,0,0,0-2.13-3,7.81,7.81,0,0,0-2.58.35l-.26-.49v-.15a24.62,24.62,0,0,0,3.38-1.46l.45.14c1,1.93,2,3.86,3,5.75s1.86,3.35,2.56,4.46v.15l-.46.25h-.16c-.73-.94-.85-.87-3.09.34Z"/><path class="cls-7" d="M205.26,150.36a14.57,14.57,0,0,0-2,.74,1.09,1.09,0,0,0-.4.73,6.58,6.58,0,0,0,.33,1.51l-.07.14-.5.17-.15-.07c-.52-1.65-1-3.4-1.61-5.15-.69-2.07-1.46-4.11-2.19-6.16l.17-.56,3.12-.81.14.42-.07.14a4.25,4.25,0,0,0-1.6,1.22,16.29,16.29,0,0,0,.8,3.5,15.72,15.72,0,0,0,1.05,2.6c.79-.18,2.7-.73,3.57-1,1.06-.36,2.08-.76,3.1-1.13a19.48,19.48,0,0,0-.71-2.48,20.58,20.58,0,0,0-1.73-3.93l.07-.14,1.43-.48.14.07a13.48,13.48,0,0,0,.93,3.55c.29.91.62,1.81,1,2.7l.39.19c.64-.19,1.32-.36,2-.57,1.25-.42,4-1.42,5.35-2a30.86,30.86,0,0,0-.93-3.29,12.89,12.89,0,0,0-1.57-3.36,7.85,7.85,0,0,0-2.27-.09l-.21-.64c.65-.16,2-.45,3.27-.87l.43.21c.6,2.07,1.27,4.15,2,6.19s1.24,3.62,1.74,4.84l-.07.14-.5.17-.14-.07c-.56-1-.7-1-3.11-.2Z"/><path class="cls-7" d="M199,107.36a16.23,16.23,0,0,0-2.09-.19,1.07,1.07,0,0,0-.68.48,8,8,0,0,0-.38,1.61l-.13.1-.52-.07-.1-.12c.18-1.16.42-2.34.57-3.51.19-1.47.31-3.25.49-4.67.11-.86.68-5.29,4.45-4.8,2.55.33,3.89,2.39,4.25,4.86h.05c.35-2.68,2.31-4.8,5.09-4.44,4.13.53,5.37,4.44,4.91,8-.12,1-.35,1.87-.56,3.51-.14,1-.2,1.94-.23,2.59l-.12.1-.53-.07-.1-.13c0-1.35-.16-1.37-2.68-1.7Zm-2.1-4.5a7.74,7.74,0,0,0,0,1.8c.81.25,4.77.76,7.16,1.07.07-.36.16-.83.22-1.32.15-1.11.68-5.21-3.37-5.74-3.38-.43-3.81,2.86-4,4.19m8.23,1.49a5.87,5.87,0,0,0,0,1.51c1.39.18,7,.91,8.12.86a3.49,3.49,0,0,0,.68-1.8c.66-5.07-2.89-5.53-4.08-5.69-3.94-.51-4.36,2.74-4.67,5.12"/><path class="cls-7" d="M219.28,86.87c-2.14,5.89-7,7.54-12.69,5.47-4.52-1.64-7.76-6.3-5.41-12.76.69-1.9,3.73-8.61,11.84-5.66,4.26,1.55,8.8,6,6.26,13m-.75-.78c2-5.59-3-8.46-5.8-9.48-4.31-1.57-8.92-1.4-10.78,3.72-1.46,4,.23,7.61,5,9.36,7.17,2.6,10.47-.66,11.54-3.6"/><path class="cls-7" d="M211.07,66a2.39,2.39,0,0,0-3.36.39l-.05.07h-.16l-.44-.29V66c.39-.48.89-1.12,1.34-1.79a16.5,16.5,0,0,0,.92-1.57c4,.22,13.9-.83,19-1.47l-8.49-5.71c-2.9-1.95-3.52-1.89-4.59-.29h-.16l-.44-.29v-.16c.58-.76,1.16-1.51,1.69-2.3s1-1.63,1.54-2.5H218l.45.3v.15c-1,1.42-1.24,1.94,2.06,4.15l9.6,6.45q1.14.75,2.34,1.38l-.65,1c-1.47,0-13.12,1.08-19.8,1.85l9.07,6.09c2.93,2,3.45,1.54,4.35.2h.16l.44.29V72c-.56.77-1.17,1.54-1.7,2.32s-1,1.7-1.5,2.43h-.15l-.44-.29v-.16c1.27-1.9.81-2.21-4.48-5.77Z"/><path class="cls-7" d="M257,24.82l-.15-.05c-.33-.49-.85-1.35-1.47-1.55a13.62,13.62,0,0,0-3,1.26c-.49.27-1,.56-1.59.95a17.45,17.45,0,0,0,1,2.15L257.35,38a16.45,16.45,0,0,0,1.06,1.81,1.1,1.1,0,0,0,.78.27,8.59,8.59,0,0,0,1.54-.63h.15l.25.47-.05.15c-1,.52-2.05,1-3.06,1.51s-2,1.15-3,1.72h-.15l-.25-.46v-.16a8,8,0,0,0,1.37-.92,1.18,1.18,0,0,0,.21-.81,15.58,15.58,0,0,0-.92-1.88l-5.56-10.4a15.3,15.3,0,0,0-1.26-2c-.67.3-1.17.54-1.66.8a14.46,14.46,0,0,0-2.71,1.76,3.82,3.82,0,0,0,.49,2.09l-.05.15-.74.4A12,12,0,0,0,243,30a9.42,9.42,0,0,0-.84-1.22l.13-.46A44.83,44.83,0,0,0,249.14,25a46.31,46.31,0,0,0,6.47-3.84l.45.14a11.66,11.66,0,0,0,.55,1.38,12.33,12.33,0,0,0,1.13,1.74Z"/><path class="cls-7" d="M264,22.17a17.49,17.49,0,0,0-.69-2,1.1,1.1,0,0,0-.72-.42A6,6,0,0,0,261,20l-.14-.07-.15-.51.07-.14c1.67-.48,3.43-.94,5.19-1.48,2.08-.64,4.14-1.37,6.21-2l.56.18.73,3.14-.43.13L273,19.2a4.13,4.13,0,0,0-1.17-1.63,15.79,15.79,0,0,0-3.53.71,16.26,16.26,0,0,0-2.62,1c.16.8.67,2.72.94,3.6.33,1.07.7,2.1,1.05,3.13a24,24,0,0,0,2.49-.65,21.11,21.11,0,0,0,4-1.63l.14.07.44,1.44-.07.14c-.4-.05-1.17.1-3.57.84-1.26.39-2.34.78-2.72,1l-.2.39c.17.65.32,1.33.52,2,.38,1.26,1.32,4,1.84,5.4.64-.11,2.08-.47,3.3-.84a13.28,13.28,0,0,0,3.41-1.49,8.65,8.65,0,0,0,.14-2.27l.65-.2c.14.66.39,2,.78,3.3l-.22.42c-2.08.55-4.18,1.17-6.23,1.8s-3.65,1.16-4.88,1.62l-.14-.07-.16-.51.08-.14c1.06-.53,1-.66.27-3.09Z"/><path class="cls-7" d="M281.71,16.34c-.07-1.2-.36-1.94-1.7-1.86h-.84l-.12-.1v-.53l.11-.12h2.43c.84-.05,1.64-.15,2.48-.26.75,1.92,5.38,9.65,8.06,14.48,1.7-4.08,5.45-11.8,6.33-15.32h2.6a13,13,0,0,0,2-.23l.12.11V13l-.1.11c-2.43.15-2.41.42-2.14,5.11l.57,9.82c.14,2.32.16,2.6,2.59,2.59l.12.11v.53l-.11.12c-1.09,0-2.21,0-3.32.08s-2.34.22-3.43.31l-.12-.1v-.53l.11-.12c2.13-.38,2.11-.77,1.81-5.82l-.54-9.43h-.06L293.1,28.74a29.6,29.6,0,0,0-1.23,3.46h-.42a24.33,24.33,0,0,0-1.59-3.29L283,16.72h0l.16,2.68.51,8.73c.2,3.52.85,3.67,2.47,3.58l.12.1v.53l-.1.12c-.95,0-1.94,0-2.88.06s-2,.2-3,.28l-.12-.1v-.53l.1-.12c2.43-.14,2.4-.7,2-7.06Z"/><path class="cls-7" d="M313,23.44l.21-.07a3.73,3.73,0,0,0,1.44.52c2,.37,4.12-.61,4.66-3.58.5-2.69-.73-4.08-3.64-4.61a16.9,16.9,0,0,0-2-.29,36.22,36.22,0,0,0-.85,3.71L310.9,29.4a17.79,17.79,0,0,0-.3,2.07,1.17,1.17,0,0,0,.44.71,9.73,9.73,0,0,0,1.92.52l.09.13-.09.52-.13.09c-1.12-.23-2.54-.58-3.67-.78s-2.27-.33-3.4-.51l-.09-.13.1-.53.13-.08a10.19,10.19,0,0,0,1.65.13,1.09,1.09,0,0,0,.66-.51,14.1,14.1,0,0,0,.46-2l2.13-11.6a18.28,18.28,0,0,0,.3-2.08,1.07,1.07,0,0,0-.44-.7,8.06,8.06,0,0,0-1.59-.47L309,14l.09-.52.14-.09c1.12.24,2.23.52,3.36.73,1.73.32,3.07.45,5,.8,1.71.31,5.13,1,4.32,5.42-.48,2.62-2.92,5.21-7.12,4.44a3.51,3.51,0,0,1-1.67-.68Z"/><path class="cls-7" d="M323.73,31.45l.07.15-.47,1.7c-.05.2.38,2.15,3.09,3.18a4,4,0,0,0,5.37-1.78,3.78,3.78,0,0,0,.3-.79c1.91-5-8.78-5.61-6.42-11.82,1.3-3.43,5.17-3.75,8.48-2.49a8.66,8.66,0,0,1,3.66,2.34A18.75,18.75,0,0,0,336.17,25l-.6-.23-.07-.15a12.18,12.18,0,0,0,.47-1.94,5.58,5.58,0,0,0-3.1-2.53c-2.41-.91-4.1.15-4.76,1.9-2.14,5.62,8.7,5.82,6.47,11.7-1.57,4.13-5.58,4.76-9.39,3.31a8,8,0,0,1-3.69-2.57,18.24,18.24,0,0,0,1.71-3.24Z"/><path class="cls-7" d="M358.36,59c2.21-4,5.7-11.06,7.61-15.16,1-2.17,1.08-2.42-.06-3.77V39.9l.39-.36h.16c.79,1,1.59,1.92,2.43,2.85s1.55,1.62,2.3,2.36v.16l-.41.38h-.14c-1.26-1.31-1.47-1.38-2-.93-.68.64-5.78,11.14-6.83,13.14h0c2.6-.92,12.59-4.58,13.73-5.62.48-.43.19-1-.73-2v-.14l.41-.38h.16c.59.74,1.17,1.46,1.81,2.17s1.13,1.16,1.68,1.68v.16l-.41.38h-.14c-.66-.65-.78-.69-3.41.19-5.17,1.71-10.72,4-15.78,5.89Z"/><path class="cls-7" d="M371,69.62c-.87.56-1.47,1-1.73,1.19a1.16,1.16,0,0,0-.22.81,9.29,9.29,0,0,0,.74,1.48v.15l-.45.29h-.16c-.58-1-1.11-2-1.72-2.94s-1.3-1.89-1.94-2.84V67.6l.45-.28h.15a9.66,9.66,0,0,0,1,1.31,1.24,1.24,0,0,0,.82.14,17.2,17.2,0,0,0,1.82-1l10-6.3a17.19,17.19,0,0,0,1.73-1.2,1.15,1.15,0,0,0,.22-.8,8.52,8.52,0,0,0-.74-1.48v-.15l.44-.29h.16c.59,1,1.13,2,1.74,3s1.28,1.87,1.92,2.82v.16l-.44.28h-.16a8,8,0,0,0-1-1.31,1.13,1.13,0,0,0-.82-.14,16.1,16.1,0,0,0-1.82,1Z"/><path class="cls-7" d="M385.18,70.84a16.41,16.41,0,0,0,1.88-.93,1.1,1.1,0,0,0,.33-.76,6.81,6.81,0,0,0-.47-1.47l.05-.15.49-.22.15.06c.68,1.59,1.34,3.28,2.09,5,.89,2,1.86,3.94,2.77,5.92l-.11.57-3,1.11-.18-.41.06-.15A4.22,4.22,0,0,0,390.68,78a15,15,0,0,0-1.13-3.41,15.75,15.75,0,0,0-1.29-2.48c-.77.25-2.62,1-3.46,1.36-1,.45-2,1-3,1.42a23.3,23.3,0,0,0,.95,2.39,21.26,21.26,0,0,0,2.1,3.75l-.06.14-1.37.62-.15-.06c0-.4-.24-1.15-1.26-3.44-.54-1.2-1.06-2.23-1.28-2.59l-.41-.15c-.62.25-1.28.48-1.89.75-1.2.54-3.82,1.8-5.14,2.48A31.57,31.57,0,0,0,374.55,82a12.88,12.88,0,0,0,1.88,3.2,9.09,9.09,0,0,0,2.27-.13l.28.62c-.64.22-2,.64-3.18,1.17l-.45-.17c-.8-2-1.66-4-2.54-6s-1.58-3.48-2.19-4.64V75.9l.49-.22.14.06c.66,1,.79.93,3.11-.1Z"/><path class="cls-7" d="M392.21,87.51a2.39,2.39,0,0,0,2.06-2.68.28.28,0,0,0,0-.09l.09-.13.52-.11.13.09c.07.61.18,1.42.35,2.21.12.6.29,1.17.47,1.76-3,2.73-9.11,10.51-12.23,14.61l10-2.08c3.41-.71,3.8-1.19,3.41-3.08l.09-.13.52-.11.13.09c.14.94.27,1.88.47,2.81s.45,1.88.7,2.85l-.08.14-.52.1-.13-.08c-.35-1.67-.53-2.23-4.41-1.43l-11.33,2.36a23.55,23.55,0,0,0-2.62.71l-.24-1.15c1-1,8.4-10.13,12.52-15.44L381.42,91c-3.45.72-3.51,1.38-3.18,3l-.08.13-.52.11-.14-.08c-.16-.94-.28-1.92-.47-2.85s-.49-1.92-.69-2.76l.09-.14.52-.1.13.08c.46,2.25,1,2.13,7.25.84Z"/><path class="cls-7" d="M395.66,111.63a18.22,18.22,0,0,0,2.09,0,1.21,1.21,0,0,0,.64-.54,7.24,7.24,0,0,0,.22-1.53l.12-.11h.53l.11.12c-.07,1.06-.21,2.54-.27,4.13-.08,2.18,0,4-.09,5.48-.21,5.53-3.42,8.48-8.9,8.28-5.75-.22-10.31-4.53-10.09-10.42.06-1.62.2-2.54.26-4s0-2.48,0-3.13l.11-.1H381l.11.12c.15,1.18.29,1.19,2.83,1.28Zm-6.26,13.3c5.28.2,8.38-2.12,8.58-7.37a17.67,17.67,0,0,0-.13-3.41c-1.81-.07-3.56-.3-5.35-.37-3.6-.14-7.24-.16-10.84-.24a15.72,15.72,0,0,0-.66,3.33c-.18,4.92,3,7.86,8.4,8.06"/><path class="cls-7" d="M393.75,134.06a16.94,16.94,0,0,0,2,.43,1.09,1.09,0,0,0,.73-.38,8.15,8.15,0,0,0,.58-1.56l.13-.08.52.13.08.14c-.09.35-.54,1.65-1.24,4.38-.37,1.44-.71,3.2-1,4.25-.61,2.41-2.49,4.21-5.2,3.52a4.8,4.8,0,0,1-3.64-4.6l-.06-1.43-.14-.15c-1.46.55-9,3.75-10.05,4.32l-.48,1-.14.08-.51-.14-.08-.13c.05-.22.36-1,.56-1.73a17.22,17.22,0,0,0,.39-2,60.7,60.7,0,0,0,11.27-4.44l.38.3c-.7,2.74-.76,5.58,2.54,6.42,2.62.68,4.05-.6,4.67-3a7,7,0,0,0,.31-2.31,18.35,18.35,0,0,0-2.5-.84l-11.18-2.87a14.39,14.39,0,0,0-2.05-.44,1.1,1.1,0,0,0-.73.39,8.2,8.2,0,0,0-.57,1.55l-.14.08-.51-.13-.08-.13c.09-.36.54-1.65.95-3.28s.66-3,.75-3.36l.13-.08.52.14.08.13a8.12,8.12,0,0,0-.25,1.64,1.1,1.1,0,0,0,.46.69,17.11,17.11,0,0,0,2,.61Z"/><path class="cls-7" d="M369.48,161.33c-1.92-.19-2.06-.1-2.84,1.16h-.16l-.47-.24v-.15c.36-.63,1.14-1.93,1.61-2.82s1-2,1.46-3l.15-.05.47.25.05.15c-.4.93-.81,1.78-.27,2.07a3.38,3.38,0,0,0,1,.17l5.08.62c.59-1,1.15-2,1.7-3s1.07-2.09,1.57-3.15L377.65,152a27.88,27.88,0,0,0-3-3.24c-.6,0-.79.24-1.57,1.48h-.15l-.47-.24v-.15c.77-1.27,1.06-1.78,1.35-2.33.47-.89.86-1.81,1.3-2.69l.15-.05.47.25v.15c-.58,1.34-.43,1.6-.15,2a25.35,25.35,0,0,0,2.14,3.12l8.1,10c.88,1.09.9,1,1.68,1.92l-.46.87a7.87,7.87,0,0,0-1.52-.23Zm10.09-7.1c-.52.93-1.05,1.82-1.54,2.76s-.9,1.83-1.35,2.73l7.89.75Z"/><path class="cls-7" d="M237.11,44.89a1.79,1.79,0,1,1-1.8-1.78h0a1.79,1.79,0,0,1,1.78,1.78"/><path class="cls-7" d="M352.13,38.24a1.79,1.79,0,1,1-1.79-1.79h0a1.79,1.79,0,0,1,1.78,1.79"/><path class="cls-7" d="M206.13,123.52a1.79,1.79,0,1,1-1.79-1.79h0a1.79,1.79,0,0,1,1.79,1.79"/><path class="cls-7" d="M298,198.92c.32-.07.6-.1.73-.48s.55-.39,1-.13c.32-.55.4-.57,1.06-.4a.45.45,0,0,0,.23,0,.62.62,0,0,1,.86.23c.39-.15.77-.28,1,.18a.21.21,0,0,0,.18.09c.51-.08.68.24.75.72.64-.26.66.45,1,.62.36-.58.36-.58,1.08-.41a.34.34,0,0,0,.2,0,.62.62,0,0,1,.86.18l0,.06c.37-.2.73-.26,1,.13a.33.33,0,0,0,.21.11c.49,0,.65.27.74.66.64.06.76.19.77.81.68.24.81.5.54,1.11a.57.57,0,0,1,.43.69.5.5,0,0,1-.08.2.31.31,0,0,0,0,.19.57.57,0,0,1-.25.8c.25.56.23.65-.18,1,.34.49.28.72-.27,1,.21.52.15.66-.42.92a.91.91,0,0,1-.22.77c-.19.27-.58.47-.56.9a.4.4,0,0,1-.14.25c-.26.25-.5.61-.81.68a.57.57,0,0,0-.51.62c0,.38,0,1,0,1.56H286.71v-1.56c0-.56-.08-.6-.52-.59s-.48-.21-.4-.57a.6.6,0,0,1-.64-.56v0c-.14-.24-.23-.56-.44-.7a.54.54,0,0,1-.24-.73v0c-.56-.24-.63-.37-.46-.92-.55-.36-.59-.55-.24-1-.41-.35-.43-.5-.17-1-.29-.21-.47-.45-.26-.82a.31.31,0,0,0,0-.19.59.59,0,0,1,.15-.81.51.51,0,0,1,.15-.07c-.21-.69-.09-.92.52-1.09.11-.69.21-.8.81-.82.09-.42.29-.74.8-.69a.28.28,0,0,0,.18-.09c.27-.42.61-.33,1-.15a.63.63,0,0,1,.87-.25s0,0,.05,0a.49.49,0,0,0,.24,0c.55-.18.69-.13,1,.44a2.52,2.52,0,0,1,.3-.27l.55-.4a1.27,1.27,0,0,0,.25-.21c.07-.09.1-.29.15-.29.58-.06.95-.8,1.63-.5h.19a.65.65,0,0,1,.89-.14.34.34,0,0,0,.2,0c.58-.17.68-.13,1,.39.6-.27.75-.19,1.12.36.11.17.4.22.61.32a.62.62,0,0,0-.22-.85.35.35,0,0,0-.14-.06,2.38,2.38,0,0,1,1-4.48,2.53,2.53,0,0,1,2.59,1.06,2.39,2.39,0,0,1-.69,3.3,2.07,2.07,0,0,1-.25.15c-.41.2-.46.42-.32.84m-.36,10.28h3.16a.84.84,0,0,0,.55-.28,9.94,9.94,0,0,0,1.63-4,7.4,7.4,0,0,0,.07-3,2.69,2.69,0,0,0-3-2.33l-.24.05a11.48,11.48,0,0,0-1.7.61,18.79,18.79,0,0,1-.46,9m-1.32,0v-.14a17.87,17.87,0,0,1-.45-8.56.34.34,0,0,0-.16-.29,7.71,7.71,0,0,0-1.3-.53,2.49,2.49,0,0,0-3.1,1.33,3.39,3.39,0,0,0-.4,1.21,9.89,9.89,0,0,0,1.27,5.9c.57,1.1.6,1.08,1.82,1.08h2.32Zm-5.89-2a1.52,1.52,0,0,1-.81-1.39c-.54-.24-.59-.35-.42-.91-.53-.31-.6-.62-.25-1-.12-.19-.3-.35-.32-.53a1.47,1.47,0,0,1,.17-.57c-.41-.18-.39-.46-.26-.87a3.35,3.35,0,0,0,0-1,2.09,2.09,0,0,0-1.73.59,3.5,3.5,0,0,0-1.13,2.56,11.14,11.14,0,0,0,1,4.75.49.49,0,0,0,.55.35h5.23c-.39-.3-.66-.66-1-.7a.56.56,0,0,1-.56-.63c-.46,0-.58-.25-.5-.64m11.25,1.94.15.06h5.07c.28,0,.37-.14.46-.35a11.23,11.23,0,0,0,1-4.33,3.83,3.83,0,0,0-.81-2.65,2.25,2.25,0,0,0-2.05-.92,4.36,4.36,0,0,0,.05.83v.23a.54.54,0,0,1-.18.75l-.14.07c.36.45.34.62-.1,1,.33.5.27.72-.27,1,.2.55.15.66-.42.9a1.57,1.57,0,0,1-.81,1.4c.16.45-.11.59-.44.7-.1.2-.24.52-.37.51-.57,0-.74.45-1.11.72m-5.13-11.71c.08-.44.15-.82.23-1.24l-1.33.1a1.6,1.6,0,0,0,1.1,1.14m.23-1.83c-.08-.41-.16-.75-.24-1.12a1.41,1.41,0,0,0-1.08,1l1.32.08m.52.59.19,1.19.13.08,1-1-.08-.12-1.27-.17m1.34-.69a1.75,1.75,0,0,0-1.14-1c-.07.37-.12.71-.19,1.12l1.33-.09"/><path class="cls-3" d="M13.25,283.06l-1.93,5.12c-1.26,3.27-1.48,4.31-1.48,5.57,0,2,1.33,2.3,2.59,2.53a31.74,31.74,0,0,1,3.2.59c.45.15.44.67.44,1a1.2,1.2,0,0,1-.52,1c-.07,0-.44.07-.67.07s-1-.15-2.6-.44a62.18,62.18,0,0,0-7.72-.15c-1.7,0-2.45.15-3,.15S0,298.5,0,297.68c0-1.11.74-1.26,2.45-1.71,2.45-.59,3.41-2,6.91-10.09l13.88-32.15a24.38,24.38,0,0,1,1.3-2.73,1.34,1.34,0,0,1,1.11-.38c.59,0,.67.15.74.45.15.67,2.38,8.17,2.82,9.5.6,1.86,11.44,29.7,12.85,32.08,1.56,2.6,2.89,3.71,4.16,4,1.7.37,1.93.37,1.93,1.33,0,.75-.23,1-1,1a52.37,52.37,0,0,0-8.39-.59c-9.73,0-10,.59-10.69.59a1.15,1.15,0,0,1-1-1.18c0-1,1.63-1.19,2.22-1.27,3.57-.59,3.86-.67,3.86-2.52,0-2.08-2.52-8.84-3.41-11Zm15.44-2.45L22,262.2l-7.65,18.41ZM33,287.44c.66,1.78,2.3,6.09,2.3,8.46l4.3.23c-2-4.61-3.56-8.84-5.12-13.07L24.17,256l-1.42,3.49a2,2,0,0,1,.15.37Z"/><path class="cls-3" d="M91.14,284.32c.52-1,.67-1.41,1.56-1.41s1.12.15,1.12,1.19a37.44,37.44,0,0,1-1.12,4.53c-.59,2.15-.81,3.78-1.18,5.79L91,297.76c-.08.74-.52,1.19-1.79,1.19-.44,0-1.18-.15-2.22-.3a26.08,26.08,0,0,0-3.72-.22H62.78c-1.63,0-3.41.15-5,.3s-2.89.29-3.56.29-1.34,0-1.34-1,.6-1.12,2.6-1.27c3.94-.29,5.12-1,5.12-7.57v-30.7c0-4.75-2.52-4.67-4.52-5a8.82,8.82,0,0,1-2.31-.59,3.44,3.44,0,0,1-.22-.82A1.36,1.36,0,0,1,55,250.84c1.26,0,4.23.59,9.87.59,3.71,0,7-.59,8.54-.59s1.63.22,1.63,1,0,.81-2.08,1.11c-3.93.59-4.3,1.19-4.3,6.61v31c0,5.12,2.22,5.2,6.09,5.2,6.75,0,12.47-3.05,15.22-8.91ZM65.23,266.87a93.8,93.8,0,0,1,.82-13.51l-4.6.15c1.48,3.93,1,7.35,1,10.1v21.6c0,5.94.14,8.91-1,11.51a14.57,14.57,0,0,1,4.75-.15,21,21,0,0,1-1-6.23Zm23.61,29.85c.15-.74,1.41-6.24,1.41-6.61A18,18,0,0,1,83,296.2c2,.22,3.93.37,5.86.52"/><path class="cls-3" d="M105.13,259.15c0-1.71-.29-4.53-2.52-4.9-3.56-.74-3.64-.74-3.64-1.78s1-1.11,1.49-1.11,2.08.14,16.55.14c7.87,0,8.76.08,11.14-.14,4.31-.38,5.87-.52,6-.52.82,0,1.71,0,1.71,1.11a29,29,0,0,0-1,7.87c0,1,.23,2.6.23,3.56s-.3,1.27-1.19,1.27-1-.3-1.19-1.12c-.45-2.74-1.19-6.83-5.72-8.46-1.48-1-6.23-1.19-7.42-1.19-5.64,0-5.94.67-5.94,8.09v10.84h12c4.67,0,4.82-.37,5.86-2.37.45-1.49.6-2,1.41-2,1,0,1,.75,1,1.41,0,.82-.37,4.53-.37,5.72,0,3.12.22,4.68.22,5.27,0,1.12-.22,2.08-1.49,2.08a1,1,0,0,1-1-.82c0-5.71-1.41-6.53-9.58-6.53h-8.24c0,9,0,15.67.52,17.23.89,2.67,1.11,2.82,5,2.82,7.2,0,13.44-1.93,16.56-7.13a39.61,39.61,0,0,0,2.07-4.31c.3-.74.67-.67,1.19-.81,1,0,1.19.59,1.19,1.26a16.49,16.49,0,0,1-1.41,4.9c-.59,1.48-.67,3.86-1.49,8.24-.14.89-2.22,1-2.74,1-.89,0-1.93-.29-16-.29-16,0-16.85.15-18,.29s-1.64.3-1.86.3c-.74,0-.74-.89-.74-1,0-1.41.89-1.48,2.89-1.71,1.27-.14,2.75-.37,3.42-1.63.07-.07,1.11-2.45,1.11-9.5Zm5,36.53a8.4,8.4,0,0,1-.22-1.93V261.3a63.81,63.81,0,0,1,.59-7.57h-4.67a20.34,20.34,0,0,1,1,5.79v23.69a76.63,76.63,0,0,1-.9,12.47Zm16.93-42.47c2.45.6,5.2,3.19,5.57,4.68.07-.82.52-4.23.52-5Zm1.41,43a20.49,20.49,0,0,0,5.64,0,23.87,23.87,0,0,0,1.34-4.9,16.74,16.74,0,0,1-7,4.9"/><path class="cls-3" d="M172.48,259.15c0-1.71-.3-4.53-2.53-4.9-3.56-.74-3.64-.74-3.64-1.78s1-1.11,1.49-1.11,2.08.14,16.56.14c7.87,0,8.76.08,11.13-.14,4.31-.38,5.87-.52,6-.52.81,0,1.71,0,1.71,1.11a29,29,0,0,0-1,7.87c0,1,.22,2.6.22,3.56s-.3,1.27-1.19,1.27-1-.3-1.19-1.12c-.44-2.74-1.18-6.83-5.71-8.46-1.49-1-6.24-1.19-7.43-1.19-5.64,0-5.94.67-5.94,8.09v10.84h12c4.68,0,4.83-.37,5.87-2.37.44-1.49.59-2,1.41-2s1,.75,1,1.41c0,.82-.37,4.53-.37,5.72,0,3.12.22,4.68.22,5.27,0,1.12-.22,2.08-1.48,2.08a1,1,0,0,1-1-.82c0-5.71-1.41-6.53-9.58-6.53h-8.24c0,9,0,15.67.52,17.23.89,2.67,1.12,2.82,5.05,2.82,7.2,0,13.44-1.93,16.56-7.13a38,38,0,0,0,2.08-4.31c.29-.74.67-.67,1.19-.81,1,0,1.18.59,1.18,1.26a16.49,16.49,0,0,1-1.41,4.9c-.59,1.48-.67,3.86-1.48,8.24-.15.89-2.23,1-2.75,1-.89,0-1.93-.29-16-.29-16,0-16.85.15-18,.29s-1.63.3-1.85.3c-.75,0-.75-.89-.75-1,0-1.41.89-1.48,2.9-1.71,1.26-.14,2.75-.37,3.41-1.63.08-.07,1.12-2.45,1.12-9.5Zm5,36.53a8.42,8.42,0,0,1-.23-1.93V261.3a63.82,63.82,0,0,1,.6-7.57h-4.68a20.34,20.34,0,0,1,1,5.79v23.69a77.75,77.75,0,0,1-.89,12.47Zm16.92-42.47c2.45.6,5.2,3.19,5.57,4.68.08-.82.52-4.23.52-5Zm1.42,43a20.49,20.49,0,0,0,5.64,0,23.23,23.23,0,0,0,1.33-4.9,16.74,16.74,0,0,1-7,4.9"/><path class="cls-3" d="M219.11,259a5.84,5.84,0,0,0-4.45-5.86c-2.53-.74-2.82-.82-2.82-1.64,0-.66.74-.66,1.26-.66.89,0,6.53.59,9.8.59,2.67,0,6.39-.59,8.39-.59,1.78,0,2,0,2,.74s-.52,1-1.34,1.34c-1,.44-1.26,1-1.26,2.22a33.7,33.7,0,0,0,3.19,8.39l11.73,24.58,12.62-27.7c.89-1.78,2-4.38,2-5.34a1.87,1.87,0,0,0-.45-1.34,6.94,6.94,0,0,1-1.34-1.85c0-.6,0-1,1-1,1.78,0,3.42.74,8.76.74a68.49,68.49,0,0,0,8.47-.74c1.26,0,1.7.22,1.7,1.33,0,.82-.22.89-2.22,1.12-3.35.37-4.83,1.33-4.83,8.91V291c0,3.57.89,4.83,3.86,5.35,3.34.52,3.56.52,3.56,1.19,0,1.19-.22,1.48-1.7,1.48a74.35,74.35,0,0,0-10-.59c-7.64,0-9.06.59-9.5.59s-1.19-.15-1.19-.81c0-1.19.3-1.27,2.23-1.56s2.89-.52,3.27-1.27,1.26-9.05,1.26-13.88V257.44l-.08-1.93c-.59,1.41-1.18,2.9-1.78,4.24l-6.83,14.62c-1.71,3.71-10.17,23.17-10.62,23.61s-.52,1-1.63,1-1-.59-1.41-1.63a51.36,51.36,0,0,0-3.42-8.09l-14.4-30.07a15.93,15.93,0,0,0-1.11-2.08,1.6,1.6,0,0,1-.45-.52V287.4c0,1,0,6,1.56,7.57,1,1,3.79,1.27,5.94,1.49,1,.15,1.41.07,1.41,1.26s-.74,1.26-1.63,1.26a63,63,0,0,0-9.21-.59,53.29,53.29,0,0,0-6.68.59c-1,0-1.34-.52-1.34-1.26s.45-1,1.19-1.26c6-1.86,6-2.08,6.24-10.4.15-4.82.29-10.09.29-15Zm1.64-5.57a9.91,9.91,0,0,1,2.74,3.42L242,294.49a3.87,3.87,0,0,1,.37,1,17.66,17.66,0,0,0,1.71-4c0-.44-1.86-3.49-3-5.71S228,259.12,227.45,257.49A10.25,10.25,0,0,1,227,255a4.19,4.19,0,0,1,.3-1.64Zm44,.38-.08,31c0,3.56-.22,7.57-.59,11.28h4.38a31.34,31.34,0,0,1-.6-5.79V272.7c0-11.5.08-12.62.45-16.85,0-.52.15-1.41.15-2Z"/><path class="cls-3" d="M290.41,265.24c0-2.38,0-9.5-1.55-10.54-.52-.75-1.86-1-3.94-1.41-.44-.08-1.85-.23-1.85-.9s.22-1.55,1.63-1.55c1.11,0,6.09.59,11.21.59,3.79,0,9.87-.59,13-.59,9.73,0,16.19,6,16.19,15,0,9.43-7.58,12.92-9.06,13.67-4.83,2.52-11.58,2.89-17.37,2.89v9.13c0,2.23,1,4.09,3.56,4.31l2.45.37c1.34.22,1.71.37,1.71,1.34,0,1.33-.82,1.48-2.3,1.48s-4.46-.59-9.28-.59a56.63,56.63,0,0,0-9.29.59c-1.11,0-1.56-.59-1.56-1,0-1.41,1.56-1.27,2.68-1.49s2.82-.44,3.12-1.63a23.64,23.64,0,0,0,.66-5.42Zm5.28,30.52a26.74,26.74,0,0,1-.6-5.35v-33a14.19,14.19,0,0,1,.67-3.71h-4.45a116.09,116.09,0,0,1,.81,12.92v23.54a43.53,43.53,0,0,1-.52,5.57Zm3-16c1.48,0,10-.37,13.36-3.19,2.67-2.3,4.38-5.64,4.38-10.77a12.82,12.82,0,0,0-4.23-9.2c-1.78-1.56-4.16-3-8.91-3s-4.6,1.93-4.6,5.86Zm9.2-26.8a13,13,0,0,1,10.32,13.14c0,4.68-1.48,9.88-7.42,12.84,8.91-3,10.25-8.9,10.25-13.06,0-2.75-1.34-12.92-13.15-12.92"/><path class="cls-3" d="M364.11,298.5a44,44,0,0,1-8.24,1c-15.74,0-24.87-12-24.87-24.43,0-8.53,4.6-16.85,11.58-21,4.09-2.45,7.87-3.93,14.85-3.93a24.88,24.88,0,0,1,25.47,24.13c0,13.29-9.58,22.42-18.79,24.2m-18.56-44.1C338.65,257.59,333,265.69,333,275c0,9.88,6.91,20.79,18,22.42-2.23-.74-7.72-3.64-10.69-8.24a29,29,0,0,1-4.53-14.7,25.3,25.3,0,0,1,9.87-20.12m28.81,22.42c0-11-7.65-24.28-19.45-24.28-7.5,0-15.45,6.61-15.45,19.31,0,7.42,2.75,13.73,4.31,15.89,1.93,2.6,6.24,9.28,14.4,9.28,9.29,0,16.19-9.43,16.19-20.2m-4.75-18.56a28.29,28.29,0,0,1,6.46,18.34c0,9.35-3.64,13.74-7.43,17.89,6.69-3.26,10.55-12.62,10.55-18.48A26.76,26.76,0,0,0,370,256c-.89-.81-5.42-3.56-8.24-3.63a16.92,16.92,0,0,1,7.87,5.86"/><path class="cls-3" d="M410.75,285.81c-2.6-3.05-5.12-6.39-7.65-9.43h-2.37v14.4c0,2.38.67,5.2,4.08,5.87,1.63.29,2.45-.08,2.45,1.26,0,1.11-.67,1.11-1.93,1.11-.67,0-5.72-.59-8.83-.59-1,0-8.25.59-9,.59-1.56,0-1.56-.74-1.56-1.18,0-1.27,1.12-1,2.38-1.27,2.75-.44,3.12-.52,3.49-1.11a5.56,5.56,0,0,0,.52-2.3,119.5,119.5,0,0,0,.67-12.4V261.45c0-5.56-.75-7.49-4-7.94-2-.22-3.2-.3-3.2-1.49s2.08-1.18,2.6-1.18c.3,0,2,.15,5.27.44a19.38,19.38,0,0,0,3.49.23c.45,0,3-.08,5.5-.15s5.12-.08,5.49-.08c3.86,0,8.91.74,11.36,3a11.22,11.22,0,0,1,4.31,8.91,14,14,0,0,1-3.19,8.69c-2,2.75-4.31,3.19-8.1,3.78,4.68,6.32,13.59,16.49,16.86,18.64a12.73,12.73,0,0,0,4,2c.52.15.44.53.44.9,0,1.26-1,1.33-2,1.41s-1.78.22-2.75.22c-5.64,0-7.94-1.26-15.29-9.43Zm-16.85-32a40.55,40.55,0,0,1,.81,9.2v19.08c0,2.83-.07,10.1-1,13.81h4c-.07-1-.22-2-.22-3V275.49c0-4.24.22-16.93.89-21.68Zm6.83,20.27c7.65,0,9.35,0,12.77-4.09a11.15,11.15,0,0,0,2-6.61c0-1.78-.67-9.8-10-9.8-2.3,0-3.49.3-4.08,2.31-.45,1.48-.74,4-.74,8.91ZM413.35,282c-1.49-1.78-3-3.93-4.53-5.87l-3.86.08c9.5,11.21,15.37,18,18.93,19.67a11.91,11.91,0,0,0,5.5,1.27,17.76,17.76,0,0,1-2-1,39.19,39.19,0,0,1-9.43-8.69Zm-4.6-7.2c3.63,0,11.28-2.75,11.28-11.51,0-3-1.48-9.58-8.46-10a11.43,11.43,0,0,1,5.71,10.17c0,6.9-4.15,9.87-8.53,11.36"/><path class="cls-3" d="M453.15,285.29c0,9.13,1.33,10.69,4.6,11.13,2.38.37,2.82.37,2.82,1,0,1.12,0,1.56-2,1.56a72.66,72.66,0,0,0-9.21-.59,81.48,81.48,0,0,0-8.83.59c-1,0-1.93-.37-1.93-1.11s.51-1.12,2.52-1.49c3.34-.59,3.49-1.63,3.71-6.16.15-3.49.23-5.49.23-8.09v-16.3c0-12-.6-12.4-5.5-12.62-1.11,0-1.71-.22-1.71-1.11,0-1.26,1.19-1.26,1.86-1.26a95.75,95.75,0,0,0,9.87.59c3.72,0,7.06-.59,8.32-.59,1.41,0,1.78,0,1.78,1.18s-1.26,1-2.37,1.27c-.67.14-2.16.59-2.6,1.41-1.41,2.6-1.56,8.46-1.56,13.88Zm-6.31-.45c0,2.08-.3,9.88-.37,11h4.15a27.72,27.72,0,0,1-.89-5.64V265.31c0-1.7.15-4.38.37-6.53.15-1.48.52-3.34.67-5l-4.82-.15c.07.89.37,1.7.44,2.52.22,2.08.45,5.2.45,7.72Z"/><path class="cls-3" d="M480,277.19c0,11.81,3.64,19.68,14.26,19.68,3.34,0,9.35-1.41,12.54-5.57,2.08-2.67,3.79-5.94,3.79-12.62V264.57c0-2.45-.22-8-.37-8.91-.3-1.85-1-1.93-2.6-2.15l-2.52-.22c-1.27-.15-2.9-.15-2.9-1.49,0-1,1.19-1,1.78-1,1.41,0,3.79.59,7.28.59,1.34,0,5.71-.59,7.13-.59s1.78.22,1.78,1.18-.3.9-3,1.12a3.56,3.56,0,0,0-3.58,3.54c0,.13,0,.26,0,.39l-.23,23c0,6.31-2.15,12.55-7.35,16-4,2.74-9.35,3.41-13.44,3.41-9.72,0-20.49-6.31-20.56-18.71l0-22.47c0-3.19-1.56-4.83-4.53-5.2-1.85-.22-2.74-.29-2.74-1.26,0-.81.44-1,1.41-1s5.56.59,8,.59c1.55,0,8.09-.59,9.28-.59,2.37,0,2.74.15,2.74,1.11s-1.7.82-3.34,1.48c-1.48.67-2.82,1.19-2.82,8Zm-7.42-23.76a9.91,9.91,0,0,1,1.18,4.09v22.35c0,9.87,6.61,15.81,12.11,16.92-9-5.42-9-12.91-9-17.29V266.13a73.91,73.91,0,0,1,1-12.7Z"/><path class="cls-3" d="M532.62,259a5.85,5.85,0,0,0-4.46-5.86c-2.52-.74-2.82-.82-2.82-1.64,0-.66.74-.66,1.26-.66.89,0,6.54.59,9.8.59,2.68,0,6.39-.59,8.39-.59,1.79,0,2,0,2,.74s-.52,1-1.34,1.34a2.09,2.09,0,0,0-1.26,2.22,34.24,34.24,0,0,0,3.19,8.39l11.73,24.58,12.63-27.7c.89-1.78,2-4.38,2-5.34a1.87,1.87,0,0,0-.45-1.34,7.13,7.13,0,0,1-1.33-1.85c0-.6,0-1,1-1,1.79,0,3.42.74,8.76.74a68.49,68.49,0,0,0,8.47-.74c1.26,0,1.71.22,1.71,1.33,0,.82-.23.89-2.23,1.12-3.34.37-4.83,1.33-4.83,8.91V291c0,3.57.89,4.83,3.86,5.35,3.34.52,3.57.52,3.57,1.19,0,1.19-.23,1.48-1.71,1.48a74.35,74.35,0,0,0-10-.59c-7.65,0-9.06.59-9.51.59s-1.19-.15-1.19-.81c0-1.19.3-1.27,2.23-1.56s2.9-.52,3.27-1.27,1.26-9.05,1.26-13.88V257.44l-.07-1.93c-.6,1.41-1.19,2.9-1.78,4.24l-6.84,14.62c-1.7,3.71-10.17,23.17-10.61,23.61s-.52,1-1.64,1-1-.59-1.41-1.63a52.27,52.27,0,0,0-3.41-8.09l-14.41-30.07a13.37,13.37,0,0,0-1.11-2.08,1.6,1.6,0,0,1-.45-.52V287.4c0,1,0,6,1.56,7.57,1,1,3.79,1.27,5.94,1.49,1,.15,1.41.07,1.41,1.26s-.74,1.26-1.63,1.26a63,63,0,0,0-9.21-.59,53.29,53.29,0,0,0-6.68.59,1.16,1.16,0,0,1-1.32-1,1,1,0,0,1,0-.29c0-.89.44-1,1.18-1.26,6-1.86,6-2.08,6.24-10.4.15-4.82.3-10.09.3-15Zm1.63-5.57a9.84,9.84,0,0,1,2.75,3.42l18.49,37.64a5,5,0,0,1,.37,1,17.83,17.83,0,0,0,1.7-4c0-.44-1.85-3.49-3-5.71S541.5,259.12,541,257.49a9.8,9.8,0,0,1-.45-2.45,4.19,4.19,0,0,1,.3-1.64Zm44,.38-.08,31c0,3.56-.22,7.57-.59,11.28H582a32.21,32.21,0,0,1-.59-5.79V272.7c0-11.5.07-12.62.44-16.85,0-.52.15-1.41.15-2Z"/><path class="cls-8" d="M347,163.05c-.76-2.88-5.43-6.24-7.54-8.19s-8.24-3.15-9.75-3.78a10.25,10.25,0,0,1-3.43-2.73,45,45,0,0,0-6.07-4.77c-2.44-1.63-8-8.67-8.78-10.68a27.49,27.49,0,0,1-1.25-6.78v-.67c.24-.11.82-.39,1.21-.6a1.8,1.8,0,0,0,.79-1.32,1.34,1.34,0,0,0,1.58.53c1.19-.27,1.45-.53,1.84-1.32a7,7,0,0,0,.29-2.28c.59.55,1,.84,1,1.71,0,1.14-.7,1.86-.7,2.19s1-.26,1.49-.88a6.19,6.19,0,0,0,.51-4.37,3.64,3.64,0,0,0-1.07-1.77c.44-.36.66-2.53,1.26-2.58.79-.06,0,1.94.73,1.65,2.37-.92,1.05-7.18-1.32-9.29-1.18-1.05-2-.86-2-1.39-.11-.87-.79-2.24-.79-2.76S309.55,97.3,309,96.9a47.34,47.34,0,0,0-5.94-4.08,44.67,44.67,0,0,0-7.19-1.95l.74-4.82-24.57-.27s-.92,1.94-1.23,2.51a15.7,15.7,0,0,0-1.58,3.43c0,.75.31,2.42.31,2.81s.26,1.58.22,1.85A3.85,3.85,0,0,1,269,98c-.53.66-2.59,2.41-3,3.07a29.14,29.14,0,0,0-1.49,2.82c-.18.48-1.19,1.36-1.36,1.8a5.21,5.21,0,0,0,.13,2.32,3.27,3.27,0,0,0,1.18,1.54c.4.27,1.41.53,1.67.84a6.51,6.51,0,0,0,1,.72,9.85,9.85,0,0,0-.2,1.21,5.26,5.26,0,0,0,.39,2.77h.44a2.37,2.37,0,0,0-.26.79,7.2,7.2,0,0,0-.09,1.32,5.36,5.36,0,0,0,.27,1.1.8.8,0,0,0,.52.48c.22.09.71.26.66.44s0,.28-.08.6a6.3,6.3,0,0,0-1.15.1,3.48,3.48,0,0,0-2.72,2.51,4.37,4.37,0,0,0,.17,3,29.51,29.51,0,0,0-.52,4.09,4,4,0,0,0,1.12,2.64,2.61,2.61,0,0,0,.63,2,8.12,8.12,0,0,0,2.07,1.4l.79.22s-.09,1.36,2.24,2a10.38,10.38,0,0,0,2,.22,1.79,1.79,0,0,0,1.75-1.75l1.28-.18a.62.62,0,0,1,.09-.12,14.49,14.49,0,0,0,1.1,4.24A6.12,6.12,0,0,0,279,141.3a12.8,12.8,0,0,0-1.78,1.14,74.39,74.39,0,0,1-6.3,4,50.25,50.25,0,0,1-8,3.3c-2.12.49-6.56,1.36-8,1.84a17.11,17.11,0,0,0-6.62,5.42c-2.11,2.82-2.55,9.71-2.55,9.71s43.43,2.6,46.09,2.71,56.61.65,56.61.65-.66-4.12-1.41-7m-54.19-52.18.33-2.16a3.42,3.42,0,0,0,.67,1.09,3.78,3.78,0,0,1-1,1.07"/><path class="cls-9" d="M280.88,122.16a3.05,3.05,0,0,0,1.11-1c.23-.41.6-1.85.93-1.72a1.78,1.78,0,0,0,1.94-.53c.34-.43,1.05-.29,1.08-.54.11-.75.38-2,1-2.31a4,4,0,0,1,2.31-.11,2,2,0,0,0,1.59-.83c.11-.37-.29-1.52-.22-2a1.78,1.78,0,0,1,.51-1.12c.22-.12,1.14-.87,1.56-1.12a7.54,7.54,0,0,0,1.11-1,5.7,5.7,0,0,1-1-3.22,8.72,8.72,0,0,0,0-3.22,23.06,23.06,0,0,1-1.48-3.65c-.07-.79-.11-2.44.69-3a2.52,2.52,0,0,0,1-2c0-.51-1.19-1.27-1.48-1.81a6.33,6.33,0,0,0-3-2.06c-1.56-.61-8.95-2.7-11.06-3.07a19.14,19.14,0,0,0-5.9-.07A17,17,0,0,0,269.75,91a9.92,9.92,0,0,0,.36,3.51,7.88,7.88,0,0,1,.11,2.17A6,6,0,0,1,268.63,99a33.66,33.66,0,0,0-2.78,3.18A7,7,0,0,0,265,104c0,.25-.3.4-.44.69s-.89.94-1,1.33a5.26,5.26,0,0,0,.58,2.75,6.7,6.7,0,0,0,2,1,2.64,2.64,0,0,1,1.19.87l.11.14a2.22,2.22,0,0,1,.83-.25,14.27,14.27,0,0,1,1.85.15,4.15,4.15,0,0,0,1.95.1,2.91,2.91,0,0,0,.9-3.07,4,4,0,0,0-2.67-2.46,7.94,7.94,0,0,0-2,.19c-.14,0,1.31-.87,1.45-1.34a10.13,10.13,0,0,1,1.34-2.35c.33-.29.66-.75.82-.79s-.42,1-.6,1.26a2.36,2.36,0,0,0-.47.9c-.11.65-.62,1.23-.47,1.52s1.08,0,1.73.27a3.33,3.33,0,0,1,1.27,1.68c.25.87.35,2.53.43,2.86s1.41,2.13,1.45,2.24a7.71,7.71,0,0,1-1.16-.8c-.14-.11-.54-.14-.54,0a2.06,2.06,0,0,0,.79.94,9,9,0,0,1,2.53,1.34,18,18,0,0,1,1.52,2.67c.07.15,1,.58,1.42,1.25a9.25,9.25,0,0,1,1.22,3,8.46,8.46,0,0,1-.22,2"/><path class="cls-9" d="M324.66,153.18a1.52,1.52,0,0,0,.32-1.52c-.21-.49-7.43-6.24-8.67-7.65s-4-4.82-4.61-6.45-.76-3.14-1.19-3.52-1.21.23-1.58.54c-.7.6-1.79,2.06-2.22,2.44s-1.3,1.09-1.52,1,.1-1.35.49-2a33.35,33.35,0,0,0,1.41-3.84,9.31,9.31,0,0,0,.22-4.13,4.38,4.38,0,0,0-1.58-2.11c-.48-.16-2.49-.92-2.54-2s.7-1.68.59-2.33S302.36,120,302.2,120s-1,.73-1.51.78-.92-.59-1.14-.48-1.3,1.41-1.79,1.79-1.88,1.25-1.88,1.25a9.62,9.62,0,0,1-.88,2.6c-.38.65-1.41,1.84-1.79,2.38s-.49,3-.7,3.31-.52,1.12-1.16,1.15-2.32-1.48-2.91-1.48-1.09,1.3-1.74,1.85-2.27.76-2.54,1-.66,1.35-1.14,1.73-1.85.49-2,.82,1,1.78,1.2,2.22-.17.87-.44,1.3,0,1.68.55,3.09a17.75,17.75,0,0,1,1.13,4.23c0,.49.15,1.08-.28.81s-.85-2.33-1.5-3.74a14.54,14.54,0,0,0-2.17-2.93s-3.09,2.23-3.69,2.61-6.4,3.74-7,4.06a37.27,37.27,0,0,1-5.58,2.22,71.84,71.84,0,0,0-7.92,1.9,13.66,13.66,0,0,0-4.93,3.36,16.81,16.81,0,0,0-2.55,6c-.23,1.07-.38,4-.38,4a8.51,8.51,0,0,1,2.93-.22,18.83,18.83,0,0,1,3.52,1.36s3.47-.59,4.56-.66a11.32,11.32,0,0,1,4.52.39,6.88,6.88,0,0,0,2.14.59,14.14,14.14,0,0,0,3.2-1.3,8.79,8.79,0,0,1,3.91-.38c1,.18,3.2.87,3.2.87a7.25,7.25,0,0,1,1.73-.27l1.36.16a12.43,12.43,0,0,1,2.87-.71,22,22,0,0,1,4.12.55,11.93,11.93,0,0,1,2.33,1.79,6.87,6.87,0,0,1,1.68-1.2,11.81,11.81,0,0,1,4.5-.43,25.71,25.71,0,0,1,4,.49c.4.11,1.87.83,1.87.83a13.32,13.32,0,0,1,4.37-1.27,29.46,29.46,0,0,1,6.29.49,23.1,23.1,0,0,1,3.09,1.68,4.21,4.21,0,0,1,2.06-1.46,13,13,0,0,1,4.6-.87,14.36,14.36,0,0,1,3.64.33,4.66,4.66,0,0,1,1.84,1s1.74-.32,2.71-.43,2.82-.16,2.82-.16a5.52,5.52,0,0,0,.33-3.47c-.74-2.08-3.64-5.53-4.88-5.81s-4.85-.72-6.46-.21c-1.16.36-3.34.18-5.64,0a36.06,36.06,0,0,0-5.09-.21,27.77,27.77,0,0,0-8.46,1.63c-1.72.67-2.9,1.48-3,1.35-1.14-1,7.26-4.12,12.25-4a76.24,76.24,0,0,0,8,0,17.8,17.8,0,0,0,3.85-1.09c.88-.57,1.73-1.19,2.55-1.84"/><path class="cls-10" d="M310.3,116a7.27,7.27,0,0,0,1.42-2.25,5.14,5.14,0,0,0-.88-3.09,14.84,14.84,0,0,0-1.31-1.32c-.17-.2.25-.35.36-.16s.59.42,1,.82a2.09,2.09,0,0,1,1.06,1.71c.18,1.25.65,1.78.06,2.7a5.81,5.81,0,0,1-1.72,1.59"/><path class="cls-10" d="M315,107.31a2.79,2.79,0,0,1,2,1.25,13.85,13.85,0,0,1,1.25,2.84,3.51,3.51,0,0,1-.13,1.64c-.14.58-.59,1.65-.79,1.65s.39-1.19.46-1.84a6.08,6.08,0,0,0-.73-2.77,5.35,5.35,0,0,0-1.31-2c-.4-.2-1-.39-1.12-.59s.39-.2.39-.2"/><path class="cls-9" d="M294.6,115.4c-.39.09-.3.4-.44.88s.58,1.62.71,2,1,2,1.49,2.11.88.22,1.19-.09a16.42,16.42,0,0,1,2.11-1.4,9.68,9.68,0,0,0,2-1.94,7.55,7.55,0,0,0,1.1-2.33c-.05-.26-.31-.22-.49-.22a3.63,3.63,0,0,0-1.23,0,3.8,3.8,0,0,0-1.67,1.32c-.52.79-2.5.62-2.63.44a13.26,13.26,0,0,0-1.72-.66,1.17,1.17,0,0,0-.44-.13"/><path class="cls-10" d="M293.9,110.87c.59-.13.59-.85.79-.52s.11.92.31,1.18.94-.46.94,0,.9,2.2.9,2.46-.63.11-.7-.08-.92-1.59-1.05-1.26a2.4,2.4,0,0,0,0,1.19c.06.2,0,.54.19.66.51.37-1.86-.51-1.86-.51s.48.77.22.77a6,6,0,0,1-1.45-.33c-.27-.13-.79-1.27-.53-1.14l1.84-.17S292,112,292.38,111.8s2.25.92,1.92.52c-.19-.22-1-1.31-.4-1.45"/><path class="cls-10" d="M305.9,102.08c.08-.31.39-.71.63-.63a7,7,0,0,1,1.67.55c.24.24,1.66,1.27,1.82,1.91a15.79,15.79,0,0,0,.64,1.74,5.45,5.45,0,0,0,.79,1.51c.32.4,2,.88,1.59,1.11a1,1,0,0,1-1.19,0c-.4-.31-2.14-3.09-1.67-1,.17.74-.63-.24-1.58-.79s-.72-1.43-1-1.83a1.56,1.56,0,0,0-1.11-.87,6.91,6.91,0,0,1-.79-.16s-1.17.44-.93-.2a4.07,4.07,0,0,1,1.09-1.31"/><path class="cls-10" d="M310.27,121a8,8,0,0,0,1.51-.92s.86-1,.4-1.25-.66.07-.79.4a2.91,2.91,0,0,1-1,1.12c-.4.19-1.72.52-1.19.72a1.49,1.49,0,0,0,1.06-.07"/><path class="cls-11" d="M300.78,103.69c-.12-.17-.53-.92-.67-1.14s-.17-.28-.24-.41a2.75,2.75,0,0,1-.15-.36c-.18-.46-.33-.92-.46-1.38s-.13-.79-.2-1.39-.19-1.12-.19-1.45a8.24,8.24,0,0,0-.2-1.32L298.6,96l.59-.46c.09.21.18.43.29.64a3.48,3.48,0,0,1,.44,1.93,10.51,10.51,0,0,0-.2,2.31c.3,1.11.65,2.21,1.06,3.29"/><path class="cls-8" d="M283.27,98.84c.35,0,.48,0,.66.26s-.09-.22.17.31.18.66.4.92.35.53-.09.44a1.76,1.76,0,0,1-1-.75c-.09-.22,0-.13-.13-.48s-.09.09-.18-.35.18-.35.18-.35"/><path class="cls-8" d="M281.12,94.31c-1.85-1.67-3.08-1.49-3.08-1.49L275.32,92c-.88-.27-1.41.08-2.2-.18s-1,.53-1.32.62-.17,1.75.09,1.58.44-.88.88-.88a5.25,5.25,0,0,1,1.41.63l-.84.42-.22,1.19.7-.44.57.22s.05,1.45.14,2.15.3,1.1.39,1.63l.09.53a1.74,1.74,0,0,0,.79-.88,4.77,4.77,0,0,0,.17-1.5,4.3,4.3,0,0,1,1.23.22c.36.18.93,1,1.19,1.19l1.32,1-.88.61a5.92,5.92,0,0,1,1.19,0c.26.09.53,0,.88.14,1.05.35.87.17.87.17l-1.4-1.23a8.71,8.71,0,0,1-1.1-1,9.21,9.21,0,0,0-1.85-1.5,7.35,7.35,0,0,0-1.49-.53,1.08,1.08,0,0,1-.75-.61c.14-.79,1.1-.53,1.54-.44a23.08,23.08,0,0,1,2.73.53c.35.17,3.25,2.11,3.25,2.11a12.48,12.48,0,0,0-3.51-2.7,3.74,3.74,0,0,1,1.49.06,12.72,12.72,0,0,1,2.19,1,3.12,3.12,0,0,1,.79.79c.27.44.53.8.53.52,0-2.63-2.62-2.75-3.07-3.16"/><path class="cls-8" d="M268,109.72s-.27.43-.49.3-.78-.4-.69-.66.62-.51,1-.55a3.2,3.2,0,0,1,.75.09c.26,0,.7.61,1,.83s.81.35.81.62-1-.4-1.47-.4a2.32,2.32,0,0,1-.94-.23"/><path class="cls-8" d="M288.72,160c.46-.2.53-.56,1.18-1.06s1-.36,2.13-.86a3.47,3.47,0,0,0,2.23-2c.4-1,0-1.36.78-2.1s.47.05.73-1.19,1.12-1.18.52-1.31c-1.25-.28-1.25.24-1.51,1a28.7,28.7,0,0,1-2,4c-.53.74-2.94,1.64-3.33,2a13.73,13.73,0,0,0-1.88,2.21c-.13.37,1.19-.66,1.19-.66"/><path class="cls-8" d="M271.36,153.67c-.13.79,1.41.09,2.73.26a16.85,16.85,0,0,1,4.21,1.36c1.85.79,1.06.57,1.85.79,2.09.59-1.5-1.62-2.29-2.15s-1.37-2.43-2.19-2.59c-2-.4-4.31,2.33-4.31,2.33"/><path class="cls-10" d="M307.65,109a20.84,20.84,0,0,0-1.14-2.14,10.13,10.13,0,0,0-.72-1c-.44-.53-1.05-1.34-1.05-1.34a1.51,1.51,0,0,1-.21.77,24.72,24.72,0,0,1,1.76,2.64,6.13,6.13,0,0,1,1.11,2.82,6.85,6.85,0,0,1-.17,1.18c-.1.25-.34.53-.5.44s.11-.44.18-.81a3.33,3.33,0,0,0-.05-1.44c-.07-.15-.16-.34-.26-.51a1.55,1.55,0,0,1-.27.68c-.16.14-.34.86-.61.79s.25-1.34.31-1.8a4.27,4.27,0,0,0-.77-2c-.3-.37-1.38-1.5-1.72-1.83h-.06a3.81,3.81,0,0,1-.4-2.29,8.45,8.45,0,0,1,.44-1.93,19.79,19.79,0,0,0,.35-2.29c.09-.7,0-1.67-.44-1.67s0-1-.44,0-.52,2-.87,1.85a.91.91,0,0,1-.42-.9c0-.36.46-.58-.07-.66A.57.57,0,0,0,301,98s-.26-.44-.52-.08-.62.35-.62-.18a1.67,1.67,0,0,0-.35-1.49,1.78,1.78,0,0,0-1-.79,14.8,14.8,0,0,1-.17,1.75c-.09.27-.71-1.49-1-2.11s-.79-1.23-1-.87.71,1.49.44,2-1.23-1-1.31-1.5,0-1.49-.53-1.67-.79-.61-.7.44a5.37,5.37,0,0,1-.53,3c-.53,1.14-1.1.42-1.67,2.55-.35,1.32-.79,2.11-.18,3a2.54,2.54,0,0,0,1.67,1,8,8,0,0,0-.06,1.69c.08.71,0,2.18.59,2.79s.44,1.06.79,2a6.14,6.14,0,0,0,2.32,2,5.42,5.42,0,0,1,.05-.81h.06a5.4,5.4,0,0,0,.65.4,18.13,18.13,0,0,1,1.58,1.19,9.34,9.34,0,0,1,1,.83,3.9,3.9,0,0,0-.44-1,6.6,6.6,0,0,0-1.2-1.22h0c-.76-.59-2-1.34-2.75-2a5.42,5.42,0,0,1-.71-.8,19.16,19.16,0,0,1-.7-4.57c.09.44.44,2,.56,2.32a9.62,9.62,0,0,0,.85,1.81,8.16,8.16,0,0,0,1,.85,3.08,3.08,0,0,0,1,1,9.47,9.47,0,0,1,2.2,1.41l1.58,1.58a5.83,5.83,0,0,0-1.19-1.75,6.75,6.75,0,0,0-1-1,13.66,13.66,0,0,1-2.46-1.49,14.28,14.28,0,0,1-.79-1.85.58.58,0,0,0-.13-.23,7.58,7.58,0,0,1-.09-1.9c.13-.66.16-2.55.4-1.85.13.4-.05,2.53.61,3.72a3.33,3.33,0,0,0,.86.72,3.68,3.68,0,0,0,.37.51A30.68,30.68,0,0,0,301,109.3a6.88,6.88,0,0,1,.88,2.28,2.64,2.64,0,0,0-.26-2.63c-.26-.3-1.06-1.14-1.41-1.5s-.67-.71-.9-1a.17.17,0,0,1,.09-.17c.35-.2.92,0,1.49.3a11.34,11.34,0,0,0-1.09-1.2c-.84-.77-1.12-.51-1.5-1.37a5.45,5.45,0,0,1-.85-2.46c0-.61-2-2.42-1.3-2,1.48,1,1.57-2.14,1.57-2.14.09.26.46,2.33.56,3s-.1.79.28,1.47.12,1.73.59,2,.41.48,1,.9,1.35.34,1.91.76,1.67,1.41,1.41,1.52a2.59,2.59,0,0,1-1.51.07l.12.07a4.25,4.25,0,0,1,1.84,1.49c.53.79,1.23.88,1.06,1.85s-.79,1.23-1.06,1.76.31.57,0,1.58a7.13,7.13,0,0,0-.44,2.55,4,4,0,0,1-.68,1.68,3.8,3.8,0,0,0,1.21-1.25c.68-1.2-.09-1.49.35-2s.44-1.93.88-1.67,2.13-1.07,1.69.51a7.08,7.08,0,0,1-1.34,1.69,2,2,0,0,0,1.58-1,3.72,3.72,0,0,0,.62-2.46c0-1.23.26-2.11-.18-3m-12.08-5c-.22-.35-.31-1.4-.66-1.89s-1.36-.83-1.62-1.54.57-1.57.87-1.88c1.81-1.89-.06-5.9.28-5.39,1,1.5,1.39,4.15.34,5.6-.35.48-.4,1.54,0,1.85a3.28,3.28,0,0,1,.7,1.58c.09.4.31,2,.09,1.67"/><path class="cls-11" d="M275.42,121c.29-.17.64-.69.47-.75s-.35-.23-.52-.23-.24.35-.24.52-.46-.06-.52.29a1.25,1.25,0,0,1-.46.63l.75-.17a2,2,0,0,0,.52-.29"/><path class="cls-10" d="M295,120.17c-.66-.92-1.19-1-1.32-1.45s-.26-2-.92-2-.92.26-1.45.26-2.28-.8-2.28,0c0,.44.88,1.73.48,2a4,4,0,0,1-.7-.59,3,3,0,0,0-.84-.79c-.33-.26-.61-.59-.88-.53s-.27,1-.52,1.41a1.8,1.8,0,0,0-.09.92s-.64-.22-.84-.09-.13.46-.13.73a2.15,2.15,0,0,0,.26.72l.66.6.6-.07s-.2-.46-.13-.66.32-.66.52-.46l1,1a4.36,4.36,0,0,1-.2-.79c0-.2-.59-.6-1-1.06s.18-.39.18-.39a2.9,2.9,0,0,1,1.08.26,4.06,4.06,0,0,1,.66.92c.16.36.37.79.61,1.25s.34,1,.21,1.14l-.09-.16-.46-.56s-.41.17-.14.45a1.64,1.64,0,0,1,.42.75,2.08,2.08,0,0,0-.27-.32c-.27-.27-1.27.16-1.93.35s-.79-.19-1.32-.46-.46.4-.53.73-.26.59-.79.79-.39-.33-.72-1.25.13-1.06-.27-1.06-.26.66-.39,1.19-.13,1.25-.4,1.32-.72-.2-.79.13.2,1.25-.13,1.84a.28.28,0,0,0,0,.13c-.16-.51-.17-.59-.29-1a3.32,3.32,0,0,1-.22-.93,1.44,1.44,0,0,1,.44-1,.78.78,0,0,0,0-.66s-.49.35-.79.53a.69.69,0,0,0-.27.7,3.35,3.35,0,0,1-.17,1.63,6,6,0,0,1-.88,1,3.35,3.35,0,0,0-.62,1.45c-.13.57.79,2.2.79,2.2a4.94,4.94,0,0,1-.08,1.27,1.76,1.76,0,0,0-.09.79c.21-.29.43-.57.66-.83a4.55,4.55,0,0,0,.74-.84,1.05,1.05,0,0,1,.88-.35c.44.09.75.79.84.66a8.7,8.7,0,0,0,.05-1.53c.62.32.74,1.32.83.17,0-.42-.07-.07.52,0s.73.37.79.83l-.17.53s-.4,1.45.79,0c.43-.53.66-.68.44-1.58s-.35-2-.09-2.29.73.64.79.31a7.21,7.21,0,0,0,.4-1.71h0a1.71,1.71,0,0,1,.13,1.18c-.21.59.11,1.36.26,1.14a4,4,0,0,0,.4-1.14,8.37,8.37,0,0,0,.26-1.1h0a1.86,1.86,0,0,1,.35.22c.4.26.42,1.27.49,1s.28-.84.41-1.44c.09-.24.16-.63.25-.93a4.13,4.13,0,0,0,.19-1.15c.2.65.5,1.38.62,1.34s.06-.59.06-1v-.55a18,18,0,0,1,1,1.83c.27.79,1.76,1,1.76,1,.79-1.06,1.58-1.89,1.58-2.81s.31-.62.18-1.28.35-1-.31-1.89"/><path class="cls-8" d="M291.87,121.22c.27-.17.1-.56.45-.83s.61.44.35-.26.8.29.07-.78c-.46-.68.27-.75-.25-1s-.87-1-1.2-.43c-.18.29.61.3.26,1.26s-1.75-.48-1.21.09a14.12,14.12,0,0,1,1.53,2"/><path class="cls-10" d="M280.38,121a4.34,4.34,0,0,0-.25-2.2c-.17-.27-1.54-1.67-2.35-2.49h0a10.68,10.68,0,0,1-1-2c-.15-.57-.39-1.14-.7-1s.33,1.2.41,2-.54,1.77,0,2.44.76,0,1.07.59,1.21,2.59,1.21,2.59a2.83,2.83,0,0,0,.1-1.77,5,5,0,0,0-.23-.74,4,4,0,0,1,.67.85,7.4,7.4,0,0,1,.05,2,12.58,12.58,0,0,1-.23,1.6l1,1.12s-.48-1.5-.25-1.81a4.37,4.37,0,0,0,.54-1.3"/><path class="cls-10" d="M275.57,118a3.22,3.22,0,0,1-1.19-.72c-.29-.3-.84-.59-.88-.85s-.51-.67-.38-1a1.11,1.11,0,0,0-.09-.72s-.17.64-.25.81a1,1,0,0,1-.68.38c-.17,0-.21-.17-.42-.3s-.29.3-.55,0-.69-.54-.42-.72c.11-.07.13-.46.38-.68s.3-.71.51-1,.12-.54.46-.71.34-.51.51-.47.72,0,.93.17.8.17,1,.42.72.26.89.76a3.2,3.2,0,0,1,.29,1.4,10.21,10.21,0,0,1,.09,1.52c-.08.52-.17,1.69-.17,1.69"/><path class="cls-10" d="M267.69,114.25a4.24,4.24,0,0,1-.18-1.41q0-.41,0-.81s.24-.43.5-.43a3.52,3.52,0,0,0,.65-.1,9.39,9.39,0,0,0,1.21.22c.28-.07.55-.16.82-.25a1.71,1.71,0,0,1,1,.07c.12,0,.21.54-.12.7a2.08,2.08,0,0,0-.68.84,5.51,5.51,0,0,1-.74.86c-.14.11-.17.83-.42.49s-.55-.7-.68-.72-.57-.13-.69.07a2.71,2.71,0,0,1-.72.47"/><path class="cls-11" d="M274.79,115.93a.94.94,0,0,0,0-.62,3.6,3.6,0,0,0-.26-.74c-.09-.18-.4-.49-.44-.31s.18.57.22.83a3.07,3.07,0,0,0,.44.84"/><path class="cls-10" d="M281,132.29a1.1,1.1,0,0,0-.26.46c-.07.27-.4.93-.53,1.32a2.86,2.86,0,0,1-1.19,1.12,5.67,5.67,0,0,1-2,.33s.26.73,1.91.4a6.28,6.28,0,0,0,2-1.32,3.61,3.61,0,0,0,.79-1.85c.06-.65-.66-.46-.66-.46"/><path class="cls-10" d="M270.75,132.58A6.58,6.58,0,0,1,269,132a2.64,2.64,0,0,1-.8-1.23v-1s0-.4-.17-.31a3.23,3.23,0,0,0-.22,1.71,2.27,2.27,0,0,0,.66,1.06,3.18,3.18,0,0,0,1.45.61,4.18,4.18,0,0,0,1,0c.13,0-.17-.26-.17-.26"/><path class="cls-10" d="M276.21,133a6.28,6.28,0,0,1-.43,1l-.16.13a1.36,1.36,0,0,1-.82.31,5.11,5.11,0,0,1-1.17-.07,4.32,4.32,0,0,1-.86-.21c-.16-.08.31.23.31.23a4.43,4.43,0,0,0,1,.3,6.65,6.65,0,0,0,1.26-.06,1.56,1.56,0,0,1-.67.42,7.15,7.15,0,0,1-1.82.46,6.65,6.65,0,0,1-1.41,0c-.28-.08.56.27.56.27a5.65,5.65,0,0,0,1.59.07,6.43,6.43,0,0,0,2.66-1.3,3,3,0,0,0,.42-1.3c0-.12-.32-.39-.42-.27"/><path class="cls-10" d="M275.85,125.43h0c-.13.4-.52.75-.44.31a1.94,1.94,0,0,0,0-.59,3.18,3.18,0,0,0-.58-.23s-.22-.29,0-.94a1.31,1.31,0,0,0-.19.35c-.22.49-.27.84-.62.71-.12,0-.15-.18-.14-.34a2.9,2.9,0,0,0-.59.67c-.23.45-1.46.75-1.85,1a7.78,7.78,0,0,0-1.16,1.27c-.23.3.31,1.43.31,2.11s.46,1,.89,1.53c0,0,.42.79.58.49s0-.6-.08-1.12.31-.9.62-1.58a2.7,2.7,0,0,1,2-1.4c.54.07,1.39.36,1.23.66a5.44,5.44,0,0,0-.57,1.36c0,.3.83,1.26.75.81s-.36-1.34.26-1.52.67-2.54.05-3.21a2.73,2.73,0,0,0-.48-.42"/><path class="cls-10" d="M266.18,130.16a4.35,4.35,0,0,1,.13-2.15,6.68,6.68,0,0,1,.95-1.5c.48-.36,1.07-.85,1.35-.48.4.53-.32.79-.32,1.25s-.27,1,0,.93.59-1.25,1.18-1.78.6-1.19,1.32-1.39a4.7,4.7,0,0,0,1.32-.72,6.06,6.06,0,0,1,1.71-.53H274a2.33,2.33,0,0,0,.08.38,1.17,1.17,0,0,1,.19-.3c.22-.22.62-.53.53-.8s-.22-.26-.27-.57.31-.3.58-.35.83.48,1,.27a5.92,5.92,0,0,0,.27-1c.22.13.3,0,.22.52a4.06,4.06,0,0,0-.09,1.1c0,.53.24-.24,0,.53s0,.7,0,.86l.15.13a1.92,1.92,0,0,0,.86-.53,6.54,6.54,0,0,0-.33-2.64,2.78,2.78,0,0,0-1.32-1c-.23,0-.57-.28-.81-.28h0c-.22,0-1.09.25-1.47.28a6,6,0,0,1-1.66-.44,1.84,1.84,0,0,0-.9.08v-.61l-.66-.84-.87-.33s.76,1,.83,1.16a4.27,4.27,0,0,1,.18.54,2.54,2.54,0,0,0-.36.29.15.15,0,0,0,0,.21h0l.69.07.73.08a1.42,1.42,0,0,1,.17.35c.1.26.65-.07.9-.1a.61.61,0,0,1,.37.1l-.88.45s-1-.36-1.23-.09-.07.33.13.66,0,.46-.2.59-1.12.59-1.38.79a5,5,0,0,0-.7,1,7.44,7.44,0,0,0,.5-1.58.64.64,0,0,0-.72-.4c-.4.07.26-.46.46-.59s1-.75.64-.81-.67-.64-1.23-.58a3.43,3.43,0,0,0-2.11,1.06,3.26,3.26,0,0,0-.88,2.59s.44-.86,1.16-.78h-.11c-.09,0,1.1.49,0,2.25a21.34,21.34,0,0,0-.88,2.59,4.22,4.22,0,0,0,0,2.06,5.17,5.17,0,0,0,2,2.07l-.57-.71a3.62,3.62,0,0,1-.74-1.36"/><path class="cls-9" d="M274,118.26s-.4-.14-.58,0a2.36,2.36,0,0,1-.87.5c-.26,0-2.28-.21-2.78-.24a11,11,0,0,1-1.39-.27A3.43,3.43,0,0,1,268,117a9.55,9.55,0,0,1,.2-1.32h1.19s.51.36.72.47a7.19,7.19,0,0,0,1,.4c.22,0,.57.06.57.23s.3.13.52.1.4-.22.58-.11.36.47.5.65l.73.9"/><path class="cls-8" d="M329.28,93a3.84,3.84,0,0,0,.47-1.84c0-.32.52-2.08,0-2.36a4.34,4.34,0,0,0-2,.08s.14-2.2-.87-2.53a7.59,7.59,0,0,0-4.05.51,6.4,6.4,0,0,0-1.34,1.59c-.11.18-.61.4-.72.18a4.82,4.82,0,0,1-.14-.74c.49-1.9.94-3.75,1-4.16.11-.81.27-6.07.27-8.18A61.32,61.32,0,0,0,321,62.43c-1.19-6.6-7.1-14.66-8.68-16.71s-5.47-4.72-7.7-6.29-5-2.77-10-3.58-16.7,0-20.08.61-8.27,5.41-8.76,5.84a1.21,1.21,0,0,0-.27,1.22,3.05,3.05,0,0,0-2.17,1.22,3.42,3.42,0,0,0-.4,2.22,6,6,0,0,0-3,1.41,29.48,29.48,0,0,0-3,3.69c-.33.59-2.12,3.9-2.23,4.23s1.23.48,1.36.49.23.32.22,1.08,1.08.16,2,.16c1.25,0,1.57.92,1.79,1.52s.55.29.92.16c.65-.21.71.33,1.09.65a13.87,13.87,0,0,0,1.46.93A20.49,20.49,0,0,0,265.45,58c.43-.87,1.08-4.6,1.37-5.38a7.2,7.2,0,0,0-.19-3.57,1.74,1.74,0,0,0,1.3-.87,2,2,0,0,0,.44-1.44c.46,0,.94-.05,1.56-.07,1.49-.05,4.65.1,5,.15a25.31,25.31,0,0,1,3.25,1.3,34.48,34.48,0,0,1,5.42,4.13A17.2,17.2,0,0,1,286,56.61a58,58,0,0,1,.9,6.7,17.06,17.06,0,0,1-2.26,4.63c-.38.32-2.33,1.36-3.68,2.28a60.43,60.43,0,0,0-6,4.62,2.32,2.32,0,0,0-.14,1.62l.43,2.87s10.9,3,15,4.94l26.19,12.41.68-.88,1,.59a7.36,7.36,0,0,0,2-1.19,2,2,0,0,1,1-.9c.43-.22.87-.75,1.14-.41s.63.59.49,1.27a3.09,3.09,0,0,0,0,2.24,1.33,1.33,0,0,0,1.49.44c.38-.11.38-.82.61-.7l1.23.61a2.79,2.79,0,0,0,2.05-.09c.47-.26,1.67-1.26,1.65-1.75a12.45,12.45,0,0,0-1.54-2.55,2,2,0,0,0,1-.37"/><path class="cls-12" d="M317.69,90.15c-.18,0-.66.27-1,0s-1.12-1.61-1.47-1.72a2.66,2.66,0,0,0-.89-.06c-.27,0,0-.4.35-.43a.77.77,0,0,1,.77.16,6.47,6.47,0,0,1,1,1.47,1.39,1.39,0,0,0,1.2.6"/><path class="cls-12" d="M320,86.7a1.59,1.59,0,0,0-.19-.83,2.26,2.26,0,0,0-1.9-.36,1,1,0,0,0-.68,1A2.19,2.19,0,0,0,318,88c.38.31.94.8.94.8s-.7-.94-.87-1.27a1.84,1.84,0,0,1-.16-.72,4,4,0,0,0,.47.54,3.34,3.34,0,0,0,.62.33,3.38,3.38,0,0,1-.56-.85.56.56,0,0,1,.19-.49s.4.15.51.36a3,3,0,0,1,.18.6,1.11,1.11,0,0,0,.09-.62,1.61,1.61,0,0,0-.27-.52s.07-.09.33,0a2,2,0,0,1,.6.52"/><path class="cls-12" d="M323.48,87.05a2.13,2.13,0,0,0-1,1.34,1.58,1.58,0,0,0,0,.75c.06.08.19-.59.35-.77a1.26,1.26,0,0,1,.91-.55,3,3,0,0,1,1.38.33c.2.11.8.11.82,0a.45.45,0,0,1,.59-.19c.22.12.4.52.49.56s.22-.43.11-.82c-.41-1.52-2.82-1.19-3.67-.61"/><path class="cls-12" d="M329.4,89.31a4,4,0,0,1,.08,1.24,2.23,2.23,0,0,0-.11.73,2.07,2.07,0,0,1-.2,1.12,1.09,1.09,0,0,1-1.06.14,3.49,3.49,0,0,0-1.09-.31c-.1,0,.33-.13.64-.16s.7.16.83.07.16-.65.18-.88a4.74,4.74,0,0,1,.29-.74c0-.13.22-.81.21-.88-.08-.34-.08-.71.23-.33"/><path class="cls-12" d="M326.64,91c.24.09.47.26.6.29s.08-.14-.15-.31a4.7,4.7,0,0,0-1.81-.62,1.42,1.42,0,0,0-.65.26c-.15.11-.32.29-.31.35s.45,0,.6-.06a2.67,2.67,0,0,1,1.72.09"/><path class="cls-12" d="M323.6,91.23a.86.86,0,0,1,.49.18c.11.11.3.3.17.37s-.53-.13-.67-.11a4.07,4.07,0,0,1-.61.08c-.19,0-.51-.41-.48-.55s.31-.12.43-.09.36.13.43.14a1,1,0,0,0,.24,0"/><path class="cls-12" d="M327.18,96.15c-.23.11-.47.22-.71.31s-.59.33-.5.58a.6.6,0,0,0,.38.38.69.69,0,0,0,.22-.09.83.83,0,0,0,.27.07,1.26,1.26,0,0,0,.53-.35c0-.07.43,0,.66-.16a.7.7,0,0,0,.22-.54s.66-.06.81-.23.19-.59-.13-.62a2.11,2.11,0,0,0-1.16.21c-.24.16-.59.44-.59.44"/><path class="cls-12" d="M319.47,91.15a4.13,4.13,0,0,1,1.11,0c.31,0,.72,0,.84.19a1.55,1.55,0,0,1,.05.88c-.06.25,0,.41-.13.48a.53.53,0,0,1-.49,0c-.06-.09-.25-.21-.26-.08s.11.47-.13.53-.64-.41-.82-.48-.4-.09-.55-.38a1.36,1.36,0,0,1-.15-.47c-.1-.42.3-.58.53-.65"/><path class="cls-12" d="M306.65,41.76A14.32,14.32,0,0,0,304,39.93c-.34,0,0,.47.26.72s1.84,2.11,2.52,2.76,1.87,1.52,2.06,2.25.49,1.55.6,2,.32,1,.13,1.35-.49.27-.49.68-.21.62-.48.6-1.22-.65-1.47-.49,1.76,2,2.28,2.6a12.9,12.9,0,0,0,2.33,2.22,9.27,9.27,0,0,1,2,1.41,5.89,5.89,0,0,1,1,1.28c.14.32,1.17,1.57,1.14,2.17s.27,1.36.14,1.62-1.47-.43-1.68-.62a16.52,16.52,0,0,0-2.12-1.71c-.38-.13-.57-.11-.54.25s.84,2,.89,2.44,0,.78.22,1a10.7,10.7,0,0,1,1.76,2.2,9.07,9.07,0,0,1,.22,3.2,24.63,24.63,0,0,1-.57,4.52,35,35,0,0,1-1.92,5.43c-.52.76-1.46,2.27-1.84,2.76s-1.73,2.17-3,2.5a7.65,7.65,0,0,1-3.26-.26.56.56,0,0,0-.58.31,16.08,16.08,0,0,1-1.24,2.12,8,8,0,0,1-1.17.37s5.07,2.74,6.53,3.64,8.16,5.15,8.16,5.15.91,0,1-.49-.64-1-1-1-2,0-2.47-.51a1.53,1.53,0,0,1-.32-1.55,5.37,5.37,0,0,1,.5-1,1.42,1.42,0,0,1-.58-1.49,2.49,2.49,0,0,1,2.19-1.63c.65.14,1.06.79,1.29.75s.06-1.24.2-1.8a1.13,1.13,0,0,1,1.14-.9,11.48,11.48,0,0,1,1.66.11,12.64,12.64,0,0,0,1.08-3.85c.22-2.11,0-7.7.14-10A37.72,37.72,0,0,0,319.39,61a62.9,62.9,0,0,0-4.61-10.17,52.88,52.88,0,0,0-4.72-6.31c-.76-.76-3.41-2.71-3.41-2.71"/><path class="cls-12" d="M291.09,55.42c-.25-.35-.65-.32-.68,0a7.2,7.2,0,0,1-.71,2.34,1,1,0,0,1-1,.13,2.66,2.66,0,0,1-1-1.9c0-.73.57-1.92.51-2.57a1.87,1.87,0,0,0-1-1.49,13.83,13.83,0,0,1-1.9-1.2,5.42,5.42,0,0,1-.7-1.35,1.13,1.13,0,0,1,.86-.79c.38,0,.95.44,1.14.17s-.73-.84-.92-1.17,0-.6-.13-.9-.82-.4-1.06-.65-2.68-1.92-3.2-2.27a14.39,14.39,0,0,0-3.94-1.21,18.81,18.81,0,0,0-2.81.1A15.66,15.66,0,0,1,272,42.3a5.55,5.55,0,0,1-2.22-.19.85.85,0,0,1-.44-1,1.37,1.37,0,0,1,.19-.6c0-.08-.21,0-.21,0-.3,0-1.09.83-1.41,1a4.74,4.74,0,0,0-1.41,1.19c-.25.43-.3.64-.19.89s.54.25.54.49v.16a2.14,2.14,0,0,0-2.41.09,2.36,2.36,0,0,0-1.09,2.06v.84c-.36.24-1.23.3-1.74.54a7.12,7.12,0,0,0-2.34,1.92,25.48,25.48,0,0,0-1.77,2.57c-.27.57-.61,1.28-.91,1.85s-1,1.3-1,1.66.43.24.86.32.49.27.49.54-.53,1,.52.79a5.08,5.08,0,0,1,2.38.3,10.76,10.76,0,0,0,1.66,1c.43.08.84-.68,1.06-.92s.59-.76.48-1.08a7.13,7.13,0,0,0-.49-1,2.39,2.39,0,0,0-.65.76,3.21,3.21,0,0,1-.75,1c-.17.12,0-.69.18-1s.49-1.22.74-1.87a10,10,0,0,0,.79-3.3c-.13-.74.18-.68-.14-.9-.49-.32-1.76,1.74-1.92,1.61s.4-.83.48-1.58c0-.35.45-.75.68-1a2.46,2.46,0,0,1,.78-.76c.41-.11,1.05-.06,1.31-.16s0-.87,0-.87a2.08,2.08,0,0,0,.75.81,1.26,1.26,0,0,0,1.1.16c.14-.1-.09-.6-.23-.68a1.5,1.5,0,0,0,1.55-.51,2.44,2.44,0,0,0,.32-2.49.47.47,0,0,1,.38.21,1.56,1.56,0,0,1,.44,1c-.09.08.92-.06,2-.08s3.79,0,4.42,0a18.77,18.77,0,0,1,3.71,1.3c.49.27,2.22,1.33,3.23,2a15.63,15.63,0,0,1,3.39,3,8.09,8.09,0,0,1,1.27,3.06,44.88,44.88,0,0,1,.84,4.63c.08,1.17.19,2.44.22,3a9.16,9.16,0,0,1-.84,2.74,13.34,13.34,0,0,1-1.11,2.2c-.21.2-1.37,1-2.2,1.66a2,2,0,0,0-1.12-.6c-.6-.06-1.59-.06-1.65-.39a1,1,0,0,0-1-1h-.06c-.85,0-2.43,1.38-2.76,1.38s-.46-1.12-.73-1.78-2-1-3.1-1-1.12.79-1.12.79a9.94,9.94,0,0,0-2.11-.13c-1.27.29-1.62,2.62-1.62,3.41s6.33,2,6.72,2.21.31,2,.31,2a9.59,9.59,0,0,1-.2,1.29c-.13.46,2,1.85,2,1.85l.9-.11.83.14s.12-1.83.26-1.73.41,1.24.76,1.48a4.34,4.34,0,0,0,1.55.69c.33,0-.74-2.33.86-1.2,1,.69,2.23.47,3.36-.79.78-.87.09-2.3-.25-2.82a2.21,2.21,0,0,0-1.42-.86,15.4,15.4,0,0,0,1.53-1.6c.3-.42,1.3-1.84,1.76-2.55a10.8,10.8,0,0,0,1.35-3c0-.54-.27-1.3.11-1.82s1.33-1.78,1.71-2.44a12.39,12.39,0,0,0,1.25-3.38,6.65,6.65,0,0,0-.38-2.39"/><path class="cls-8" d="M258.34,57a1.51,1.51,0,0,0,1-.92,5.81,5.81,0,0,1,1.06-1.4c.35-.44,1.53-3.32,1.53-2.73a10.84,10.84,0,0,1-.57,2c-.26,1-.61,1.06-.7,1.58s-.35.44-.35,1.06.61.53,0,.61a7.83,7.83,0,0,1-1.93-.22"/><path class="cls-8" d="M273.76,70a2.46,2.46,0,0,0-1-.55,3,3,0,0,0-.79-.13,2.7,2.7,0,0,1-.93-.18c-.11-.09,0-.53-.15-.64s-.35-.15-.46,0a.65.65,0,0,0-.11.62.61.61,0,0,0,.53.46,4.53,4.53,0,0,0,.74.09,7,7,0,0,1,1.12,0c.29.07,1,.29,1,.29"/><path class="cls-8" d="M275,68.91a.77.77,0,0,1-.52-.29.85.85,0,0,1-.2-.5,1.74,1.74,0,0,1,0-.51c.05-.18.29-.22.35-.13a.81.81,0,0,1,.09.44.83.83,0,0,0,.11.37,3.3,3.3,0,0,1,.15.62"/><path class="cls-8" d="M283.66,74.93c-.17-.07-1-.2-1.09-.42a1.62,1.62,0,0,0-1.28-.72c-.22,0-.77-.08-.86-.06s.29.21.51.23a1.77,1.77,0,0,1,.7.24,1.44,1.44,0,0,1,.49.46c.11.18.08.33.48.49s.32.15.59.17.44.09.59,0,0-.22,0-.28a.37.37,0,0,0-.16-.09"/><path class="cls-8" d="M282,71.48a1.19,1.19,0,0,0,.46,0c.09,0,.2-.11.07-.31s-.15-.49-.28-.6-.12-.15-.38-.11-.31,0-.44.09-.7.4-.77.55-.18.27-.11.31.37-.31.51-.35a.84.84,0,0,1,.46-.13.52.52,0,0,1,.41.26Z"/><path class="cls-8" d="M278,75a3.87,3.87,0,0,1-1.43.28,1.75,1.75,0,0,1-1.21-.57,2.41,2.41,0,0,1-.22-1.58.75.75,0,0,1,.53-.42c.1,0,0-.15-.17-.17a.73.73,0,0,1-.42-.44,4.51,4.51,0,0,0-.1-.53h0v-.06h0a1.92,1.92,0,0,0-.79-.31,2.73,2.73,0,0,0-.7,0H273l-.87.15,1.13.13a2.53,2.53,0,0,1,.55,0c.13,0,.24.13.46.09a1.49,1.49,0,0,1,.51.06.54.54,0,0,1,.07.13.87.87,0,0,1-.07.31,3.07,3.07,0,0,1-1.41.13,5.3,5.3,0,0,1-1.36-.33c-.28-.17-1.16-.37-1.27-.48a1.46,1.46,0,0,0-.53-.22,4.63,4.63,0,0,1-.75-.22,1.59,1.59,0,0,1-.39-.34v-.14a3.12,3.12,0,0,1,.09-.44,2.18,2.18,0,0,1,.74.26c.22.18.66,0,.88,0s1.49,0,1.1-.13l-.35-.07-.35-.06a9.37,9.37,0,0,0-1.06,0,1,1,0,0,1-.65-.46c0-.12.21-.68,0-.6s-.27.27-.4.36-.35.31-.54.46c-.14-.29-.24-.53-.24-.53a5,5,0,0,0-.36,1.43c0,.44,1.11,1,.88,1.23s-1,1-.35,1.56.66,1,1,1.14a1.41,1.41,0,0,0,.72.24c.27,0,.53-.31,1-.28s.86-.11.92.08.18.58.22.69.07.3.57.17.79-.35.88-.68-.11-1,.16-1.23.13-.64.52-.64.51.14.51.14a1.51,1.51,0,0,0-.24.72,2.28,2.28,0,0,0,.33,1,1.85,1.85,0,0,1-.18.44,1.87,1.87,0,0,0-.09.88c0,.31.05.75.07.94a1,1,0,0,0,.09.33,7.37,7.37,0,0,1,.94,0,5.21,5.21,0,0,0,.79,0,2.94,2.94,0,0,1,.07-.94,6.28,6.28,0,0,1,.55-.7c.17-.18.77-.35.79-.51s.09-.28,0-.28"/><path class="cls-8" d="M280.3,69.55s0-.53-.39-.62a1.56,1.56,0,0,0-1,0c-.18.13-.93.48-1.06.57s-.92.09-1.05.31a2.35,2.35,0,0,0-.35,1,4.76,4.76,0,0,0-.05,1s.35-.88.44-1,.22-.58.49-.62.62-.11.92-.18c.13,0,.53-.57.83-.43s.93.35.88.57,0,.4,0,.61a1.84,1.84,0,0,0,.44-.39,1.9,1.9,0,0,0,0-.79"/><path class="cls-12" d="M269.8,73.37a6.4,6.4,0,0,0,.88.09,3,3,0,0,0,.84-.18,2.4,2.4,0,0,1,.7-.13,2.08,2.08,0,0,1,.61,0l-1.67.57c-.35.13-1,.31-1.27.09a.3.3,0,0,1-.09-.44"/><path class="cls-12" d="M300.11,85.11l-2.67-1.44c-.76-.4-2.75-1.12-2.75-1.12A9.48,9.48,0,0,0,296,81.46c.14-.25.25-.61-.36-.5s-2.31.27-2.93-.22c-.87-.69-.06-2.32-.06-2.32a7.22,7.22,0,0,1-.71-1.58c0-.4.3-1.27,1.17-1,.41.14,1.95.83,2.27.87s.27-.44.27-.44l-.88-.47a3.13,3.13,0,0,1-.62-2,2.08,2.08,0,0,1,2.06-1c.76.25,1.56.8,1.49,1.32a3.52,3.52,0,0,0,.06,1.58c.15.21.84-.15,1-.37s-.21-1-.43-1.41a3.31,3.31,0,0,1-.11-2.13c.26-.36,1.56-.4,1.81-.44s.82-1.2,1.77-1.07c1.88.24,1.52,2.23,2,2.59s1.23.51,1.08,1.56c0,.32-1.15,1.19-1.55,1.32s-1.19,0-1.41.12-.07.76,0,.91a6.37,6.37,0,0,0,.53.75,3.15,3.15,0,0,1,.85-1c.43-.25,2.74-1,3.43-.83a2.1,2.1,0,0,1,1.19,1.52c0,.32-1.15,2.2-1.26,2.64a3,3,0,0,1-1.85,1.22c-.54,0-.92,0-1.12.22s-.13.31.1.48.95.14,1.28.35.54,2.32-.07,2.79a4,4,0,0,1-3,.1c-.43-.29-.87-1.66-1.16-1.84a.63.63,0,0,0-.83.32l0,.08a8.93,8.93,0,0,0,.21,1.44"/><path class="cls-8" d="M301.72,78.2a1.48,1.48,0,0,0,0,.35,1.86,1.86,0,0,1-.22.86,1.43,1.43,0,0,1-.86.79,1.82,1.82,0,0,1-1.28.07,2.76,2.76,0,0,1-.92-.58c-.22-.25-.19-.69-.26-.75h0a.2.2,0,0,0-.06.11,2.06,2.06,0,0,0-.62,1.18,5.6,5.6,0,0,0,.17,1.22s0-.53.12-.89c.11-.54.33-.59.45-.63a1.36,1.36,0,0,0,.53.63,1,1,0,0,0-.19.49,7.5,7.5,0,0,0,.05,1.42c.05,0,0-.47.06-.53s.14-.54.2-.67a.83.83,0,0,1,.41-.49,3.79,3.79,0,0,0,1.57.14,1.61,1.61,0,0,0,1.31-1.24c.09-.52-.19-1.4-.46-1.49"/><path class="cls-8" d="M295.78,74.23a1.55,1.55,0,0,0,.05.64.57.57,0,0,0,.22.37,1.13,1.13,0,0,0,.32.19c.07,0-.18-.24-.16-.48a1.4,1.4,0,0,0,0-.5c0-.18-.11-.72-.11-.72Z"/><path class="cls-8" d="M303.83,84a.68.68,0,0,1-.11.33.85.85,0,0,1-.35.08c-.2,0-.24-.06-.42-.15a9.37,9.37,0,0,1-.85-.68,1.76,1.76,0,0,1,.81.2c.13.07.33-.07.46-.16s0-.69,0-.69a3.18,3.18,0,0,1,.46.63,3.23,3.23,0,0,1,0,.44"/><path class="cls-8" d="M300,77.3a1.43,1.43,0,0,0-.64.15c-.15.11-.39.25-.44.4s-.11.37-.11.37.38-.24.58-.35a1.27,1.27,0,0,1,.63-.17,1.19,1.19,0,0,1,.53,0c.15,0,.13-.29.07-.33a4.23,4.23,0,0,0-.62-.11"/><path class="cls-8" d="M301.25,75.84a2.72,2.72,0,0,1,.67-.9c.18-.13.53-.08.75-.17s.52-.31.48-.45-.34-.25-.67-.19-.32,0-.76.38a4.68,4.68,0,0,0-.47,1.33"/><path class="cls-8" d="M302.4,73a3,3,0,0,0-.22-.74c-.08-.22-.48-.75-.57-.62s.05.57,0,.92a1.57,1.57,0,0,1-.13.42c-.08-.12-.16-.2-.22-.16a.5.5,0,0,0-.42.38,3,3,0,0,0,0,1.12,3.59,3.59,0,0,1,.39-.39,2.33,2.33,0,0,0,.37-.46c.15,0,.31-.49.49-.42s.11.88.33.61.09-.44,0-.66"/><path class="cls-8" d="M302.66,78.88a2.29,2.29,0,0,1,1-.46c.44,0,.79,0,.83.18s-.53.22-.66.26a6.49,6.49,0,0,1-.74.26c-.14,0-.45-.24-.45-.24"/><path class="cls-7" d="M307.3,61.71,306,61.55v-.34a5.82,5.82,0,0,0-1.29-3.76l1-.81a.25.25,0,0,0,0-.36.23.23,0,0,0-.34,0h0l-1,.82a5.94,5.94,0,0,0-3.61-1.77l.17-1.51a.27.27,0,0,0-.22-.29.26.26,0,0,0-.28.23l-.17,1.53h-.3a6.41,6.41,0,0,0-3.74,1.18l-1-1.25a.25.25,0,0,0-.36,0h0a.25.25,0,0,0,0,.36l1,1.24A5.76,5.76,0,0,0,293.67,61H292a.26.26,0,0,0-.26.25h0a.26.26,0,0,0,.26.26h1.64a5.72,5.72,0,0,0,1.67,3.79l-.91.91a.24.24,0,0,0,0,.34h0a.24.24,0,0,0,.35,0h0l.92-.92A6.21,6.21,0,0,0,299.6,67v1.43a.26.26,0,0,0,.51,0V67a6.16,6.16,0,0,0,3.72-1.39l.79.81a.26.26,0,0,0,.37-.36l-.78-.79a6.08,6.08,0,0,0,1.69-3.22l1.35.16a.25.25,0,0,0,.27-.23h0a.26.26,0,0,0-.22-.29M304.81,61v.41l-4-.47a.86.86,0,0,0-.13-.23l3.13-2.55a4.55,4.55,0,0,1,1,2.84m-1.33-3.23-3.21,2.62h-.1l.45-4a5.09,5.09,0,0,1,2.86,1.48m-3.73-1.55h.38l-.46,4a1.55,1.55,0,0,0-.31.06l-2.57-3.18a5,5,0,0,1,3-.92m-3.36,1.23,2.53,3.1a1,1,0,0,0-.28.4h-3.95a4.9,4.9,0,0,1,1.71-3.51m-1.7,4h3.88a1.07,1.07,0,0,0,.15.41l-2.62,2.63a4.65,4.65,0,0,1-1.41-3m1.78,3.37,2.62-2.61a1.32,1.32,0,0,0,.51.16V66a5.24,5.24,0,0,1-3.13-1.14M300.11,66V62.34a1.91,1.91,0,0,0,.32-.16L303,64.79A5.11,5.11,0,0,1,300.11,66m3.26-1.53-2.6-2.64a1.07,1.07,0,0,0,.11-.33l3.84.45a5,5,0,0,1-1.35,2.52"/><path class="cls-8" d="M272.14,84.61s.39-1.7.43-2.21.14-1.86.14-1.86A1.58,1.58,0,0,1,272,79.4a1.75,1.75,0,0,1,.87-2c.72-.26,2.6-.58,6,.1s13.19,3.4,17.93,5.68,18.94,11,20,11.75a28.11,28.11,0,0,1,3.79,2.92,1.32,1.32,0,0,1-.18,1.52c-.29.36-1.16.07-1.16.07s-1.12,1.85-1.48,2.57-2.85,4.16-2.85,4.16-19.23-12.73-23.43-14.53a79.5,79.5,0,0,0-15-4.67c-2.21-.28-4.1-.22-4.62-.29-.88-.1-1-1.24-.73-1.62a1.07,1.07,0,0,1,1-.47"/><path class="cls-12" d="M320.07,97.91a1.08,1.08,0,0,1-.23,1,1,1,0,0,1-1,0c-.12-.08-.1-.54.11-.58s.56.23.74,0l.36-.47"/><path class="cls-12" d="M272.87,79.44s.12-.66.27-.76c.4-.26,1.87-.43,4.07-.19a70.74,70.74,0,0,1,8,1.84c1.12.33,3.15,1,3.36,1.09s.33-.08-.11-.27-5.2-1.82-6.5-2.2a41.23,41.23,0,0,0-6.7-1.27,6.55,6.55,0,0,0-2.25.21,1,1,0,0,0-.49,1,.91.91,0,0,0,.33.6"/><path class="cls-12" d="M310.17,97.06a2.34,2.34,0,0,0-.19-1.54c-.19-.09-1.54-.17-2-.25s-1.71-3-2-3.47-2.76-.89-2.76-.89-.27-1.06-.82-1.33a4.82,4.82,0,0,0-2-.06s-.51-1.24-1.08-1.46a6.71,6.71,0,0,0-2.28.06,7.65,7.65,0,0,0-1.25-1.41,12.72,12.72,0,0,0-2.68-.87s1.33.65,1.6,1.24a1.1,1.1,0,0,1-.14,1.14c-.08.19.28.14.68.27s1.2,1.68,1.3,2a2.24,2.24,0,0,0,1.11,1.08c.57.28,6.13,3.31,6.67,3.64s4.12,2.93,4.5,3.11.87,0,.74-.46-.79-.65-.79-.65a4.45,4.45,0,0,1,.72-.1,5.7,5.7,0,0,0,.58-.06"/><path class="cls-12" d="M316.6,105c-.11-.51-1.85-1.52-2.5-2s-8.59-5.62-10.52-6.75c-1.64-1-5.78-3.14-8.44-4.5a3,3,0,0,1-.41-.28,6.69,6.69,0,0,1-.85-1.55,2.82,2.82,0,0,0-2.17-1.76,3.21,3.21,0,0,1-2.09-.92c-.27-.38-.3-1.82-1.49-2.61s-2.36-.08-2.66-.23A10.28,10.28,0,0,0,283,82.88c-1-.28-1.87.67-2,.59S280,82.07,279.37,82s-1,.62-1,.49-.32-.55-.3-.66.41-.92.22-.94-.73-.52-1.25-.49-1.52,1.06-1.68,1.06a13.57,13.57,0,0,1-1.53-.48c-.28-.12-.45.26-.5.39a15.54,15.54,0,0,0,0,1.93,2.26,2.26,0,0,0,.46,1.16,2.7,2.7,0,0,0,1.46.77,96.62,96.62,0,0,1,10.52,2.38c3.35,1.08,7.48,2.83,7.48,2.83l.08.36a5,5,0,0,0-.62-.29c-.33-.07-.7,0-.79.22a1.14,1.14,0,0,0-.11.79s7.62,3.87,10.55,5.71c1.48.93,5.63,3.62,8.64,5.79,2.15,1.55,4.08,3,4.23,3.11a.87.87,0,0,0,1-.08,1.13,1.13,0,0,0,.33-1.08"/><path class="cls-8" d="M278.06,68c-.26.11-1.16.73-1.27.62s-.4-1-.72-1.48a1.63,1.63,0,0,0-1.16-.69,11.94,11.94,0,0,0-2.46-.25c-.32,0-.79.57-.79.57a5.75,5.75,0,0,1-.83,0,4.55,4.55,0,0,0-1.27.15c-.29.07-.68.76-.68.76a3.17,3.17,0,0,1,.5-.47,3,3,0,0,1,1.19-.15,9.38,9.38,0,0,1,1.29.12s.41-.62.85-.73a1.24,1.24,0,0,1,.47,0h.14a8.13,8.13,0,0,1,2.1.6,1.54,1.54,0,0,1,.68,1c.11.36.4,1.19.7,1.08a8.54,8.54,0,0,0,1.22-.69,12.74,12.74,0,0,1,1.34-.65,7.14,7.14,0,0,0-1.3.18"/><path class="cls-8" d="M228.15,166.46a15.38,15.38,0,0,1,4.23-.16,4.17,4.17,0,0,0,1.68.22c.44-.08,1.89-.22,2.87-.28a22.18,22.18,0,0,1,3.36-.05,26.6,26.6,0,0,1,2.93.71l.27.1a24.21,24.21,0,0,1,3.25-1.35,15.24,15.24,0,0,1,3.69-.22,20,20,0,0,1,3.42,1.25l5.53-.65a7.26,7.26,0,0,1,4.66.81c.6.38,1.52-.05,1.84,0s1.47-.76,2.28-1,3.63-.81,4.5-.48l2.57,1a8.91,8.91,0,0,1,1.82-.49,4.5,4.5,0,0,1,1.3.32,11,11,0,0,1,7.27-.07,13.53,13.53,0,0,1,2.38,1.59,4.45,4.45,0,0,1,1.25-1.08,16.73,16.73,0,0,1,4.29-.38,21.66,21.66,0,0,1,2.54.27,17.46,17.46,0,0,1,2.5.22,5.06,5.06,0,0,1,1.27.83,18.9,18.9,0,0,1,3.5-1.16c.7,0,4,0,4.44.06s2.34.16,2.93.32a18.21,18.21,0,0,1,2.66,1.57,15.89,15.89,0,0,1,2.28-1.35,13.11,13.11,0,0,1,4.17-1.09,14.15,14.15,0,0,1,4.39.6c.48.19,1.58.76,1.58.76a36,36,0,0,1,4.5-.71,25.94,25.94,0,0,1,5.2.55c.76.21,2.87,1,2.87,1a12.64,12.64,0,0,1,4.07-1.24c1.52,0,7.08.87,7.08.87a34.14,34.14,0,0,1,6.37-.87,28.94,28.94,0,0,1,7.53,1.46c.49.49,4.61.6,6.18,4.07s2.17,8.56.28,10.89-4.67,5-7.27,5.1a15.49,15.49,0,0,1-3.6-.13,13.43,13.43,0,0,1-4,.26q-2.44-.41-4.83-1.05a8.55,8.55,0,0,1-3.74,1,23,23,0,0,1-7.32-1.09,33,33,0,0,1-4.06.76,45.54,45.54,0,0,1-6.18-.21,6.37,6.37,0,0,1-2.66-1.2,6.59,6.59,0,0,1-3.46,1.28,73,73,0,0,1-7.4-1,11.16,11.16,0,0,0-2.16-.15,5.19,5.19,0,0,1-1.08.4,19.57,19.57,0,0,1-5.64.8,31.12,31.12,0,0,1-8.24-1.89,20,20,0,0,1-5,1.25,14,14,0,0,1-4.34-.81s-.57.84-3.54.85-7.41-.15-7.79-.42a6.43,6.43,0,0,0-1-.54s-1.79-.33-2.33-.38a10.58,10.58,0,0,0-1.95.21,18.92,18.92,0,0,1-4.72.82,14.66,14.66,0,0,1-3.89-1.58,23.57,23.57,0,0,1-5,1.42,8.4,8.4,0,0,1-2.12-.22,13.41,13.41,0,0,1-4,0,11.31,11.31,0,0,0-2.38-.49,21.53,21.53,0,0,1-5,.49c-1.68-.22-4.39-.49-4.39-.49a13.5,13.5,0,0,1-2.66.54c-1.74.18-5.64.54-8.46-.49s-5.57-3.15-6.53-5.55c-1.22-3-.71-6.17-.36-8.27a7.86,7.86,0,0,1,5.43-6.13"/><path class="cls-7" d="M330.1,185.65a.69.69,0,0,1,.6.14,4.92,4.92,0,0,0,.41.52c.18.13.71.57.71.57a2.67,2.67,0,0,1-.79.18,1.59,1.59,0,0,1-1.06-.4c-.26-.26-.79-.61-.66-.87s.79-.14.79-.14"/><path class="cls-7" d="M345,179.28c.53.79,1.71,3.17,2.11,3.56s1.51,1.78,1.84,2.18.86.77,1.32,1.12a7.37,7.37,0,0,0,1.08.83,18.19,18.19,0,0,1-2.62-3.44,16.58,16.58,0,0,1-1.28-2.14c-1.85-2.92-4.7-6.85-5.35-8.43a10.75,10.75,0,0,0-3-4l-.78-.45a9.22,9.22,0,0,0-2.17-.66c-.46-.06-3.41-.65-4.79-.71A32.47,32.47,0,0,0,326,168a11,11,0,0,0-2-1.08,16.76,16.76,0,0,0-4.29-.43,10.14,10.14,0,0,0-3.74,1,19.35,19.35,0,0,0-2.33,1.25,1.7,1.7,0,0,1,1,.7,10.28,10.28,0,0,1,.76,1.38c.06.26.79,1.44,1,2.09.55,1.67,5.29,8.44,5.55,8.83a13.5,13.5,0,0,0,2.46,2.55l.41.34c-.72-1-1.58-2.24-1.88-2.67-.53-.74-3.6-4.57-3.91-5.27s-2.5-4.35-2.81-5.05-.62-1.45-.48-1.45.27.26.44.52,1.22,2.38,1.4,2.77,1.93,3.39,2.37,4c.7.91,1.44,1.79,2.23,2.63a15.53,15.53,0,0,1,1.55,1.59c.17.23,1.25,1.75,1.91,2.6l.18.17s.66.79,1.27.61a.62.62,0,0,0,.46-.66c-.07-.36-1.45-1.36-1.71-1.75s-1.23-1.59-1.41-1.94-1.4-2.24-1.49-2.37a3.11,3.11,0,0,1-.13-.79,5.15,5.15,0,0,1,.53.61c.13.22,1.18,2.07,1.45,2.47s1.23,1.45,1.45,1.8a10.23,10.23,0,0,0,1,1.18l.89.82c.28,0,.88-.07,1.1-.07h.13c-.42-.54-.86-1.16-1.16-1.54-.48-.61-2.11-2.77-2.24-3s-1.27-2.33-1.36-2.59-.09-.48.13-.31.35.66.66,1.1a14.75,14.75,0,0,1,1,1.67,9,9,0,0,0,1.1,1.36c.3.4,1.18,1.71,1.4,2a9.16,9.16,0,0,0,1.32,1,7.92,7.92,0,0,1,1.19,1.05c.28.18.63-.22.63-.35v-.08c-.49-.58-1.19-1.46-1.52-1.9s-1.89-2.94-2.2-3.38a6.25,6.25,0,0,1-.83-2.24c.17,0,.52.75.65,1.14s1,1.45,1.15,1.85a28.84,28.84,0,0,0,2.19,3c.12.14.83.85,1.56,1.61l.09.06a3.34,3.34,0,0,0,1.23.39,2.34,2.34,0,0,0,1.36-.08,1,1,0,0,0,.32-.6c-1.18-1.33-3-3.27-3.6-4-.1-.14-.22-.32-.35-.54-1-1.6-2.64-5.16-3.06-6s-1.41-2.57-1.91-3.66a3.24,3.24,0,0,1-.27-.71s2.65,3.86,3,4.57,2.38,4.16,2.94,5.59,2.94,3,3.61,4c.41.56,1.22,1.6,1.78,2.3l.59.54a4.71,4.71,0,0,0,1.21.75H340s.56.28,1.18.53a7,7,0,0,1-2.3-2.31,27,27,0,0,0-2.68-3.07c-.52-.62-3.07-4.61-3.25-5.05s1.5,1.67,2,2.37a27.72,27.72,0,0,0,2.51,3.21c.66.52,2.94,2.59,3.29,2.85s1.28,1.28,1.41,1.23a6.89,6.89,0,0,0-1.06-2.2c-.3-.3-2.41-3.47-2.72-4a14.43,14.43,0,0,1-.79-1.75c-.18-.49.92,1.14,1.14,1.58a46.38,46.38,0,0,0,2.9,4.08,31.33,31.33,0,0,0,3,2.38,10.45,10.45,0,0,0,1.94.92c.53.13,1.11.23,1.44.28a3.57,3.57,0,0,0,1.37-.7,4,4,0,0,1-2,0,6.89,6.89,0,0,1-2.86-1.49,11,11,0,0,1-1.07-1.72,16.32,16.32,0,0,1-1.41-2.19c-.18-.57-.31-1.1-.18-1.1a24.69,24.69,0,0,1,2,2.85,8.36,8.36,0,0,0,1.8,2c.4.13.27-.27.27-.53s-2.51-3.56-2.64-3.91-.75-1.36-.61-1.5,1.14,1.45,1.45,1.94a36,36,0,0,0,2.72,3.56c.48.39,1.08,1.07,1.36,1.23.6.32,1.12.65,1.28.75l.06-.05a20.75,20.75,0,0,1-2.63-3.14c-.4-.86-1.92-3.36-2.11-4a23,23,0,0,0-1.45-2.84c-.33-.59-1.19-1.45-.93-1.64s2,2.63,2.51,3.42m-27-8.79c-.17-.44-2.11-1.93-1.93-2.28s1-.09,1.14.18,2.46,4,2.46,4a15.4,15.4,0,0,1-1.67-1.94m4-.61s-1.37-1.32-1.59-1.63a10.88,10.88,0,0,1-1.05-1.4c0-.18.26-.09.48.09a9.16,9.16,0,0,1,1.15,1.18,7.28,7.28,0,0,1,1,1.76m3.8,1.71c-.35-.13-.35-.48-.57-.83a3.74,3.74,0,0,1-.44-.84c-.18-.44-.58-.52-.84-.88s-.64-.79-.77-1l-1.05-.84,1.29.4c.27.09.66.35.66.48a2.59,2.59,0,0,0,.18.66c.09.22,1.14,1.49,1.19,1.76s.7,1.18.35,1m2.44-1.84c-.14,0-.31-.27-.49-.44a4.11,4.11,0,0,0-.48-.62c-.22-.17-.18-.39-.09-.66s.31.14.53,0-.13.35.13.57.26.48.48.83c0,0,.05.31-.08.27m2.67.92c-.39.13,0,0-.19-.4s-.53-.59-.66-.92a1.67,1.67,0,0,0-.17-.26c-.22-.26-.56-.53-.75-.73L329,168l.79.4s1.52,2.24,1.12,2.37m4.79,0s-1.36-1.31-1.58-1.62a10.32,10.32,0,0,1-1.05-1.41c0-.17.26-.09.48.09a9.16,9.16,0,0,1,1.14,1.19,6.62,6.62,0,0,1,1,1.75m3.61,3.17a10.3,10.3,0,0,1-.8-1.8,5.85,5.85,0,0,0-.35-.71c-.29-.56-.64-1.16-.85-1.58a7.85,7.85,0,0,0-1-1.48,1.57,1.57,0,0,0-.32-.31s2,1.29,2.19,1.89,1.49,4.59,1.1,4"/><path class="cls-7" d="M284.72,183a36.37,36.37,0,0,1-2.29-3.31c-.62-.88-2.28-2.33-2.72-3.79-.07-.24-.18-.54-.31-.86-.52-.93-1.12-2.08-1.34-2.39s-2-3.29-2.15-3.6-1.06-1.36-1.06-1.54.53.22,1.06.88a21.61,21.61,0,0,1,1.62,2.59c.06.11.17.31.32.55l-.34-.7-.26-1.17,1.41,1.66c.41.49.52,1.56.79,2s1.14,2.34,1.58,3a15.41,15.41,0,0,0,2.55,2.92,25,25,0,0,1,2.81,2.83,19.88,19.88,0,0,0,2.4,2,1.6,1.6,0,0,0-.23-.38c-.35-.44-.74-1-1.23-1.62a20.6,20.6,0,0,1-1.67-2.29c-.57-1-1.27-2.06-1.71-2.72s-1.63-2.24-1.85-2.5-.44-1.1-.22-1.1.31.66.58.92,2.32,3.21,2.72,3.6a10.38,10.38,0,0,1,1.36,1.85,16.57,16.57,0,0,0,1.23,1.58,9.92,9.92,0,0,0,1.5,1.32,14.7,14.7,0,0,0,1.49,1.67c.26.13,1.23.79,1.23.52s-.31-.43-.62-1a9.09,9.09,0,0,0-1.58-1.58c-.3-.31-1.67-2.73-1.93-3a14.39,14.39,0,0,1-1.67-2.76c.13-.13.75.74,1.1,1.23s1.58,2.33,1.93,2.85a9.31,9.31,0,0,0,1.63,1.63c.17.09,1.45,1,1.62.83s-.7-1.27-1-1.84-1.62-2.07-1.84-2.51-1.14-1.23-1.19-1.4-.13-.79-.13-.79a1.93,1.93,0,0,1,.61.66c.18.35.8.7,1.23,1.4a6.76,6.76,0,0,0,1.19,1.58c.66.66.88,1.45,1.41,2s1.31,1.89,1.89,2.11,0,0,0-.4a5,5,0,0,0-.26-1.23c-.17-.71-.44-.79-.93-1.4s-.66-.92-1.14-1.5a1.49,1.49,0,0,1-.46-1.49c.13-.57.29.22.51.48a7,7,0,0,0,.79,1.23,24.25,24.25,0,0,1,1.49,2.11c.48.66,1.36,1.86,1.76,2.47a6,6,0,0,0,1.56,1.28.3.3,0,0,0,.06-.11,43.66,43.66,0,0,1-4.77-7c-1.45-2.75-3.65-7.11-5.09-9.6l-1.32-1.73-.56-.49a6.38,6.38,0,0,0-.82-.33,16.06,16.06,0,0,0-4.14-.54l-.71.1c-.91.19-2.2.58-2.2.58a7.53,7.53,0,0,0-1.06-.16,2.94,2.94,0,0,1-.42,0h-.17a14.09,14.09,0,0,1-1.58.27,9.47,9.47,0,0,0-3.1-1,11,11,0,0,0-3.38.35,5.79,5.79,0,0,0-1.18.56,2.23,2.23,0,0,0-.27.72c-.05.26.17.35.44.7a18.79,18.79,0,0,1,1.27,1.45,13.5,13.5,0,0,0,1.1,1.4c.18.21.7,1.06.22.8s-.49-.49-.88-1l-.92-1.24a11.63,11.63,0,0,0-1.19-1.14,2.26,2.26,0,0,0-1.15-.74,7.19,7.19,0,0,0-.59.51,6.28,6.28,0,0,1,1.17,1.19c.57.83,4.16,8.7,5.23,11.17a11.48,11.48,0,0,0,4.21,5.39c-.43-.47-1.05-1.11-2-2.18-.06-.08-.48-.86-.55-.93a21.78,21.78,0,0,1-1.71-3.78c.22-.61.7,1.19.7,1.19a24.35,24.35,0,0,0,1.85,2.55c.39.31.44.7.66.66s-.48-1.1-.66-1.45-.57-1-.75-1.45S273,179,273,179s-.36-.61-.18-.61.83.92,1,1.36a3.81,3.81,0,0,0,.75,1.27c.57.75.83,1,1.32,1.59a6.73,6.73,0,0,0,1.49,1.27c.26.13.53.4.66.31a.31.31,0,0,0,.14-.42.18.18,0,0,0-.05-.07,9.55,9.55,0,0,1-1.15-1.31c-.33-.49-.64-1-.92-1.5-.13-.44-.61-1.27-.31-1s.62,1,1.1,1.5,1.14.87,1.67,1.49.13.31.84.88a12.8,12.8,0,0,1,1.45,1.89,3.64,3.64,0,0,0,.89.48.34.34,0,0,0-.08-.17c-.18-.27-.31-.62-.53-.93a10.08,10.08,0,0,1-.83-1.32c-.32-.56-.62-1.13-.88-1.71s-1.54-1.89-1.8-2.28-1.37-1.85-1.45-2-.09-.52.08-.52.71.83.93,1.18a9,9,0,0,0,1,1.54,23.81,23.81,0,0,1,1.93,2.42,10.27,10.27,0,0,0,1.1,1.62c.26.22,1.14,1.37,1.36,1.59s1,.44,1.19.26-.09-.35-.71-1a7.59,7.59,0,0,1-1-1.63c-.35-.57-1.14-1.62-1.53-2.15s-1.06-1.49-1.45-1.93-1.63-2.64-2-3-.22-.88-.09-.71l.09.11a6,6,0,0,1,1,1.39,8.54,8.54,0,0,0,.69,1.11c0,.07.09.13.13.19.78,1.13,1.86,2.58,2.21,3a8,8,0,0,1,.88,1.27,18.93,18.93,0,0,0,1.71,1.76,13.8,13.8,0,0,0,1.41,1.23,2,2,0,0,0,1.6,1.19l1,.07a9,9,0,0,0,1-.11,12,12,0,0,1-1.4-1.06,28.32,28.32,0,0,1-2.46-2.44m0-16.19c.27.09.66.35.66.48a2.59,2.59,0,0,0,.18.66c.09.22,1.14,1.49,1.18,1.76s.71,1.19.35,1.05-.35-.48-.57-.83a4,4,0,0,1-.44-.84c-.17-.44-.57-.52-.83-.87l-.62-.84-.7-.75a5.32,5.32,0,0,1,.79.18m-5.31.17c.08-.26,0,0,.22-.08s.17.48.43.7.27.48.49.84c0,0,0,.3-.09.26a2,2,0,0,1-.48-.44c-.18-.18-.27-.44-.49-.62s-.17-.39-.08-.66M272,168.94c-.09-.17-.48-.43-.66-.65s-.75-.62-.83-.8c0,0-.4-.48-.27-.61s.49.26.71.53a9.92,9.92,0,0,0,.83.74,10.69,10.69,0,0,1,.75,1.32,3,3,0,0,1-.53-.53m14.5,17c-.57-.26-.4-.17-.83-.66s-.8-.65-1-1a7.93,7.93,0,0,0-1.09-1c-.44-.44-.79-.62-1.28-1.05s-.39-.8-.53-1.15.36.13.62.31a3.67,3.67,0,0,1,.88.79c.26.35,1.14,1.14,1.45,1.45s.92,1.06,1.1,1.27c0,0,.44.53.52.66.32.28.65.55,1,.8,0,0-.26-.09-.83-.36"/><path class="cls-13" d="M262.88,167.55a3.32,3.32,0,0,0,.7.75c.53.48.71.75,1.23,1.19a5.5,5.5,0,0,1,1.23,1.36c.8,1,.4,1.05.88,1.62l.88,1s-1.1-2.41-1.4-2.9-1.45-1.53-1.72-2-.79-.62-1.1-.84a1.26,1.26,0,0,0-.7-.22"/><path class="cls-13" d="M257.21,167.24c.31.09.53.14.66.31s0,.31.27.53.61.61.48.7-.35,0-.53-.22a4.82,4.82,0,0,0-.66-.83c-.22-.18-.48-.35-.48-.35Z"/><path class="cls-13" d="M258.71,182.62c.17,0,0-.61-.18-.7s-.39-.48-.61-.62-.44-.61-.66-.44-.31.36,0,.75a7.4,7.4,0,0,0,.84.84.78.78,0,0,0,.57.17"/><path class="cls-13" d="M265.65,185.43c-.18-.17-.35-.7-.57-.83s-.57-.44-.75-.4,0,.44.09.58a1.69,1.69,0,0,0,.48.48c.35.26.79.61.93.53s-.18-.36-.18-.36"/><path class="cls-13" d="M253.59,174.67a15.31,15.31,0,0,1-1.67-1.93c-.18-.44-2.11-1.94-1.93-2.29s1-.09,1.14.18,2.46,4,2.46,4"/><path class="cls-13" d="M252.38,170a6.9,6.9,0,0,0-1-1.75,8,8,0,0,0-1.14-1.19c-.22-.18-.48-.26-.48-.09a10.32,10.32,0,0,0,1.05,1.41c.22.3,1.58,1.62,1.58,1.62"/><path class="cls-13" d="M256,169.27c.13.17.5.61.77,1s.66.44.83.88a4.22,4.22,0,0,0,.44.84c.22.35.22.7.57.83s-.3-.79-.35-1-1.1-1.54-1.19-1.76a3.21,3.21,0,0,1-.17-.66c0-.13-.4-.4-.66-.48l-1.3-.4Z"/><path class="cls-13" d="M260.49,168.56c.16.32.62,1.12.94,1.76s.81.8,1,1.6a8.34,8.34,0,0,0,.54,1.52c.27.64.27,1.29.7,1.53s-.38-1.45-.43-1.93-1.35-2.8-1.46-3.2a6.32,6.32,0,0,1-.22-1.2c0-.24-.48-.72-.81-.88s-1.59-.72-1.59-.72Z"/><path class="cls-13" d="M246.38,167.22c.4.22.62.13,1.06.71a4.21,4.21,0,0,1,.28.41c.25.39.38.69.51.73s-.26-1-.13-1a.56.56,0,0,1,.53.09c.21.13-.4-.58-.71-.8s-.26-.48-.61-.57-.53-.22-.66-.17-.27-.05-.4.09.13.52.13.52"/><path class="cls-13" d="M258.25,186a.86.86,0,0,0-.24-.63c-.12-.06-.37-.36-.52-.33s-.18.33,0,.54a1.84,1.84,0,0,0,.51.45.24.24,0,0,0,.28,0"/><path class="cls-13" d="M255.77,184.6a1.24,1.24,0,0,0-.34-.9c-.17-.09-.51-.51-.73-.47s-.25.47,0,.77a2.36,2.36,0,0,0,.73.64.33.33,0,0,0,.38,0"/><path class="cls-13" d="M250.26,175.43c.17.2.4.28.61.55s.36.3.47.7a3.51,3.51,0,0,0,.63,1c.21.31.74,1.08.91,1.25s.5.8.67,1a9.15,9.15,0,0,1,.67.71c.16.24.24,0,.37.57a7.39,7.39,0,0,0,.34.84c0,.17-.27.23-.27.23s-.81-.33-.87-.53-1-.88-.94-1a1.71,1.71,0,0,0-.24-.94c-.1-.21-.64-1.31-.84-1.62s-.77-1.17-.87-1.37a2.54,2.54,0,0,0-.37-.64c-.2-.24-1.55-1.57-1.72-1.84s1.45,1.09,1.45,1.09"/><path class="cls-7" d="M238.34,184.89c.22.21.12.24.4.28a2.62,2.62,0,0,0,.56.09c.34,0,.55-.13.21-.31a5.58,5.58,0,0,1-1.2-.71,1.57,1.57,0,0,0-.49-.4s-.31.28-.07.55a3.55,3.55,0,0,0,.59.5"/><path class="cls-7" d="M244.6,185a1.69,1.69,0,0,0,.84.57c.26,0,.92.13.75-.13a6.65,6.65,0,0,0-1.19-1c-.31-.22-.62-.66-.92-.48s.52,1,.52,1"/><path class="cls-7" d="M242.46,167.52a1,1,0,0,0,.13.23,24.39,24.39,0,0,1,1.48,2.64,2.94,2.94,0,0,1,.37,1.64.69.69,0,0,1-.53-.59c-.11-.53-.27-.86-.37-1.25a6.76,6.76,0,0,0-.85-1.32c-.37-.59-.68-1.32-.95-1.45h-.05a5.61,5.61,0,0,1-1.08-.23,13.21,13.21,0,0,0-3.76-.33,16.75,16.75,0,0,0-2.44.39s.27.4.4.66.59,1.58.59,1.58l-1.78-1.91s-2.24-.72-2.83-.79a13.51,13.51,0,0,0-2.9.4,8.51,8.51,0,0,0-2.9,1.91,30.18,30.18,0,0,0-1.85,4.61,20.21,20.21,0,0,0-.26,3.3,8.29,8.29,0,0,0,1.18,4.08,6.25,6.25,0,0,0,.94,1.18c.39-.27-.5-2.39-.61-2.82-.65-2.68-.08-2.9-.08-2.9a14.22,14.22,0,0,0,.79,2.63c.3.57,2.19,4.39,2.9,4.48s-.93-3.91-1-4.35-.27-2.72-.27-2.72a28.46,28.46,0,0,0,1,2.81c.35.7,3.24,5.79,3.65,5.63,1.05-.44-1.57-3.87-1.89-5.63-.57-3.16.08-2.81.08-2.81a10.36,10.36,0,0,0,.49,2.81c.79,1.5,2.91,2.23,3.21,3,.7,1.8,3.64,3.51,3.73,3.25s-4.61-4.83-4.66-6.9c0-.45.57.49.57.49s0,.43.79,1.31,1.85,2.73,2.11,2.64-1.27-4.26-1.27-4.26l.4-.13s1.05,2.19,1.4,2.81a5.18,5.18,0,0,0,1.93,1.93l.62.18a14.5,14.5,0,0,0-1.06-2.38,23.25,23.25,0,0,1-1.23-3.42s1.94,3.25,2.29,3.86a6.75,6.75,0,0,0,2.81,2.2c.7.09-2.06-3.56-3.21-6a65,65,0,0,1-2.37-6.58,57.57,57.57,0,0,0,3.6,6.76c1.15,1.58,4.35,4.75,4.79,4.57s-.64-1.56-1.62-3a10.79,10.79,0,0,1-1.14-2.77s1.8,2.9,2.41,3.6,1.41,2.46,1.93,2.46-2.1-4.3-2.28-5-1.05-3-1.05-3a31.2,31.2,0,0,0,2.37,3.86c.79.88,2.72,4.22,3.25,4.13s.26-1.58-.18-2.28-1.75-3.52-1.75-3.52.65-.35,2.63,3.52a10.22,10.22,0,0,0,1.41,2.11c.53.53.35.61.61.44s-2.23-4-2.5-4.57c-.36-.72,1.05.88,1.05.88s1.1,1.36,2,2.5.85.59,1.57,1a27.09,27.09,0,0,1-1.79-2.07,90.34,90.34,0,0,1-5-9.36,10.5,10.5,0,0,0-.86-1.58,9.17,9.17,0,0,0-3-2.54m-14,5.31a.5.5,0,0,1-.61-.36h0a9.12,9.12,0,0,1-.4-2.37c0-.66.13-2.2.44-2.24s.09.79,0,1.19a19.71,19.71,0,0,0,.35,2.41c0,.27.31,1.1.18,1.37m10.87-3.43-.59-.4a5.42,5.42,0,0,0-.92-1.05c-.26-.13-.33-.66-.33-.66s.59.06.72.26.6.6.73.79.59,1.06.39,1.06"/><path class="cls-13" d="M362.17,184.09a25.18,25.18,0,0,1-2.85-4.89c-.53-1.32-4.26-7.56-4.7-8.22s-1.76-2.29-2.33-2.29-.74.31-.66.71a7.65,7.65,0,0,0,.31.92s.16-.4.47-.4a1.5,1.5,0,0,1,1.2.84c.35.61,3.08,5.23,3.47,6s2.24,3.82,2.77,4.83,2.46,3.6,2.63,3.86a1.26,1.26,0,0,0,.81.51c.3,0-1.12-1.85-1.12-1.85"/><path class="cls-13" d="M366.22,185.13c.13-.27-.09-.84-.09-1s0-.22-.22-.66a31.78,31.78,0,0,0-2-3.12,7.71,7.71,0,0,1-1.36-1.94,4.53,4.53,0,0,0-.75-1.62c-.2-.28-.5-.66-.71-.92l-.25-.31a2,2,0,0,0,.17.79,9.34,9.34,0,0,1,1.05,1.71,17,17,0,0,0,1.54,3c.44.58.66,1,1,1.5a7.85,7.85,0,0,1,.83,1.36,5.82,5.82,0,0,0,.84,1.19"/><path class="cls-13" d="M367.67,183.94c.09-.18-.4-1-.44-1.27a11.36,11.36,0,0,0-.62-1.72,9.44,9.44,0,0,0-.83-1.49c-.31-.48-1.49-1.76-1.67-2.15s-.7-1.06-.75-.93a16.58,16.58,0,0,0,1.59,3,7.06,7.06,0,0,1,1.18,2.11,5.13,5.13,0,0,0,.48,1.62c.27.44.62,1.1.8,1.14s.26-.26.26-.26"/><path class="cls-13" d="M368,173a3.09,3.09,0,0,0-.67-1.28c-.39-.39-1-1.06-1.17-1.23s-.5-.56-.67-.44a.69.69,0,0,0,.06.94c.33.23,1,.95,1.34,1.17S368,173,368,173"/><path class="cls-13" d="M354.63,167.64a5.58,5.58,0,0,1,1.58.07,6.69,6.69,0,0,0,1,.14c.41,0,.83.06,1.24.06a2.65,2.65,0,0,0-.2.49c-.07.21.55.55.48.76s-1.52-.83-1.73-.83-1-.35-1-.07a4.75,4.75,0,0,0,.62,1l-1.73-.9Z"/><path class="cls-13" d="M344.76,171.21c.16.21.4.28.6.55s.37.31.47.71a3.78,3.78,0,0,0,.64,1c.28.43.59.84.91,1.24.16.17.5.81.67,1a9.26,9.26,0,0,1,.67.71c.17.24.23,0,.37.57a7.3,7.3,0,0,0,.33.84c0,.16-.27.23-.27.23s-.8-.33-.87-.54-1-.87-.94-1a1.63,1.63,0,0,0-.23-.94c-.1-.2-.64-1.31-.84-1.61s-.78-1.17-.88-1.38A2.09,2.09,0,0,0,345,172c-.2-.24-1.55-1.57-1.71-1.84s1.45,1.08,1.45,1.08"/><path class="cls-13" d="M360.71,187.28c-.17-.14-.7-.91-1.24-1.57s-2.25-3.23-2.67-3.7a37.29,37.29,0,0,1-2.91-4.75,3.25,3.25,0,0,0-.72-1.42,6.76,6.76,0,0,0,.64,2.28c.33.66,1.35,3.32,1.68,3.84s1.77,1.71,2,2.09,1.14,1.66,1.47,2.13a11.92,11.92,0,0,0,2.32,1.86c.21.05-.6-.76-.6-.76"/><path class="cls-13" d="M355.78,187.55s-1.47-1.37-1.6-1.57-1.42-2.21-1.74-2.65-.77-1.15-1.12-1.69c-.15-.24-.26-.43-.28-.47a3.45,3.45,0,0,0,.5,1.35c.37.51,1.26,2.13,1.62,2.77a14.18,14.18,0,0,1,.8,1.43c.08.29-.67.05-.85-.15a20.38,20.38,0,0,1-1.42-2.06,6.7,6.7,0,0,0-1.15-1.39,7.18,7.18,0,0,0,.7,1.58,9.94,9.94,0,0,0,1.33,2,8.25,8.25,0,0,0,2,1.29,6.05,6.05,0,0,0,1.2.14,5.62,5.62,0,0,0,1-.15Z"/><path class="cls-13" d="M318.88,186.57c-.32.28,2.52.47,2.85.34s.45-.19.71,0c.49.27,1.18.13,1-.19s-1.37-.16-1.7-.29-.54-.57-.87-.44.08-.09-.51.24-.25.35-.25.35Z"/><path class="cls-13" d="M301.32,168.22a1.39,1.39,0,0,1,.21.21,5.49,5.49,0,0,1,.64,1c.14.27.37.67.57,1,.08.17.16.33.22.47a7.44,7.44,0,0,0,.53,1.19c.27.39-.59-2.24-.72-2.64s-1.45-1.25-1.45-1.25"/><path class="cls-13" d="M309.22,170.79a5.87,5.87,0,0,0-.6-1.52c-.32-.41.11-1.21-.16-1.05s-.76-1.05-.86-.57a2.6,2.6,0,0,0,.32,1.7,10.9,10.9,0,0,1,.6,1.12,3.24,3.24,0,0,0,.59.8c.16.08.11-.48.11-.48"/><path class="cls-13" d="M302,186.43a9.23,9.23,0,0,1-2.09-2.14c-.14-.31-3.3-4.81-3.41-5s-.32-.52-.43-.52.09.44.23.69.93,1.42,1.16,1.81,1.43,2.44,1.54,2.8a4.34,4.34,0,0,0,.93,1.12c.25.29.73.54.85.75.32.55-.75.49-.58.54s1.61.57,1.81.59a2.2,2.2,0,0,0,.62.12c.37,0,1.24.18,1.44.13s-1.34-.44-1.34-.44Z"/><path class="cls-13" d="M307.58,184.29a12.35,12.35,0,0,1,1.17,1,7.66,7.66,0,0,0,1.34,1c.28.06-.12.61-.28.56a12,12,0,0,1-1.23-.89c-.28-.23-1.06-.67-1.23-1.12s-.5-.78-.27-.89.5.33.5.33"/><path class="cls-13" d="M306.16,185.45a.86.86,0,0,0-.24-.63c-.12-.06-.36-.36-.51-.33s-.18.33,0,.54a1.84,1.84,0,0,0,.51.45.22.22,0,0,0,.27,0"/><path class="cls-13" d="M307.42,171.33c.08.12.18.29.29.49a2.64,2.64,0,0,0-.29-.49"/><path class="cls-13" d="M308.8,174a17.67,17.67,0,0,0-1.08-2.18c0,.1.12.16.36.29.48.27.13-.48-.05-.7s-.79-1-1.1-1.41-1-1.1-1.27-1.45-.48-.44-.44-.7.2-.66.42-.75-.4-.09-.82.18a1.26,1.26,0,0,0-.34.35,4.13,4.13,0,0,0-2-.2s1.56,1.3,2,1.74,1.85,2.2,2.38,2.9,1.58,3,1.93,3.6q1.38,1.72,2.92,3.32a28.77,28.77,0,0,1-2.92-5m-1.09-2.19c-.11-.2-.21-.37-.29-.49a2.64,2.64,0,0,1,.29.49"/><path class="cls-13" d="M297,173.57a24.6,24.6,0,0,1-1.76-3.07,5.43,5.43,0,0,0-1.12-2.14,7.27,7.27,0,0,1-1-1l-.32-.38a8.46,8.46,0,0,1,2,.22c.36.29,0,.62.25,1.15s1.14,2.46,1.5,3.16.9,3,1.25,3.39-.81-1.37-.81-1.37"/><path class="cls-13" d="M296.5,167.68a2.91,2.91,0,0,1,1,.27,2.4,2.4,0,0,1,.53,1.14,10.39,10.39,0,0,0,.61,2.11c.27.53,1.15,1.49,1.23,2.11s.62,1.93.71,2.37a22.43,22.43,0,0,0,.92,2.35c.13.29-1.89-3.05-2.15-3.67s-1.32-2.81-1.58-3.34-.44-1.23-.71-1.84-.61-1.5-.61-1.5"/><path class="cls-13" d="M289.88,167.2a4.26,4.26,0,0,1,.94-.07l.76.11s.55.79.65,1a5,5,0,0,1,.47,1c0,.25.37.54.37.79a1.47,1.47,0,0,1-.29.65s-.58-.56-.44-.83-.14-1-.5-1.55a6.09,6.09,0,0,0-2-1.16"/><path class="cls-13" d="M310,167.78s1.05.25,1.27.33a7.67,7.67,0,0,1,1.41,1,8.87,8.87,0,0,1,.83,1.55c.11.36,1,2.06,1.08,2.24s.29.55.18.62-.76-.8-.86-1.16a13.88,13.88,0,0,0-1-1.91c-.15-.19-.22.21-.11.57a5.69,5.69,0,0,1,.18.84s-.5-.8-.79-1.41a4.14,4.14,0,0,0-.91-1.45l-1.3-1.23"/><circle class="cls-6" cx="297.12" cy="114.88" r="106.65"/></g></g></g></svg>