<svg width="287" height="47" xmlns="http://www.w3.org/2000/svg"><g fill="none" fill-rule="evenodd"><path d="M16.992 5.557c-6.36 0-10.976 4.921-10.976 11.702 0 6.78 4.616 11.702 10.976 11.702 6.332 0 10.927-4.922 10.927-11.702 0-6.781-4.595-11.702-10.927-11.702m0 24.893c-7.223 0-12.465-5.548-12.465-13.191 0-7.644 5.242-13.191 12.465-13.191 7.195 0 12.416 5.547 12.416 13.191 0 7.643-5.221 13.191-12.416 13.191m.097-28.961c-9.026 0-15.577 6.632-15.577 15.77 0 8.99 6.593 15.77 15.335 15.77 9.025 0 15.576-6.632 15.576-15.77 0-8.991-6.592-15.77-15.334-15.77m-.242 33.029c-9.591 0-16.824-7.42-16.824-17.259C.023 7.419 7.36 0 17.089 0c9.59 0 16.823 7.419 16.823 17.259 0 9.839-7.336 17.259-17.065 17.259M46.791 16.068c.68.031 1.593.059 2.791.059 4.343 0 7.15-2.065 7.15-5.261 0-4.24-4.389-4.873-7.005-4.873h-2.936v10.075zm2.791 1.548c-1.713 0-2.863-.056-3.579-.098l-.7-.041V4.504h4.424c5.318 0 8.493 2.378 8.493 6.362 0 4.1-3.39 6.75-8.638 6.75zm9.246 14.832h5.555v-2.434h-3.406l-6.592-10.97.854-.306c3.755-1.349 5.996-4.345 5.996-8.017 0-5.417-4.21-8.651-11.266-8.651H38.51v2.434h3.875v25.51H38.51v2.434H49.37v-2.434h-4.068V19.762l.788.047c.786.046 2.04.096 3.201.096.601 0 1.2-.046 1.831-.095l.471-.037 7.235 12.675zm7.044 1.489h-7.908L50.767 21.33c-.485.035-.979.064-1.476.064-.856 0-1.76-.026-2.5-.059v7.19h4.068v5.412H37.02v-5.412h3.875V5.993H37.02V.581h12.95c7.867 0 12.754 3.885 12.754 10.14 0 4.044-2.279 7.383-6.145 9.084l5.241 8.72h4.052v5.412zM73.716 32.448h11.248v-2.434h-4.165V4.358h8.608v5.086h2.676V2.07H66.597v7.374h2.676V4.358h8.608v25.656h-4.165v2.434zm12.737 1.489H72.227v-5.412h4.165V5.847h-5.63v5.086h-5.654V.58h28.464v10.352h-5.654V5.847h-5.63v22.678h4.165v5.412zM117.93 32.448h10.861v-2.434h-3.875V4.504h3.875V2.07H117.93v2.434h4.068v11.272h-17.907V4.504h4.068V2.07h-10.86v2.434h3.874v25.51h-3.874v2.434h10.86v-2.434h-4.068V18.113h17.907v11.9h-4.068v2.435zm12.35 1.489h-13.839v-5.412h4.068v-8.923H105.58v8.923h4.068v5.412H95.81v-5.412h3.874V5.993H95.81V.58h13.838v5.412h-4.068v8.294h14.929V5.993h-4.068V.58h13.839v5.412h-3.875v22.532h3.875v5.412zM150.357 5.557c-6.359 0-10.975 4.921-10.975 11.702 0 6.78 4.616 11.702 10.975 11.702 6.332 0 10.927-4.922 10.927-11.702 0-6.781-4.595-11.702-10.927-11.702m0 24.893c-7.222 0-12.465-5.548-12.465-13.191 0-7.644 5.243-13.191 12.465-13.191 7.195 0 12.416 5.547 12.416 13.191 0 7.643-5.221 13.191-12.416 13.191m.097-28.961c-9.026 0-15.576 6.632-15.576 15.77 0 8.99 6.592 15.77 15.334 15.77 9.026 0 15.576-6.632 15.576-15.77 0-8.991-6.592-15.77-15.334-15.77m-.242 33.029c-9.591 0-16.824-7.42-16.824-17.259 0-9.84 7.337-17.259 17.066-17.259 9.591 0 16.824 7.419 16.824 17.259 0 9.839-7.337 17.259-17.066 17.259M171.131 29.27h4.164V5.247h-4.164V1.325h12.64v3.923h-4.116V29.27h4.116v3.923h-12.64zM196.119 9.123V29.27h4.068v3.923h-12.204V29.27h3.874V5.249h-3.874V1.326h7.652l17.241 22.47V5.25h-4.068V1.326h12.059v3.923h-3.729v28.04l-2.422.049zM236.797 29.27c8.96 0 13.56-4.94 13.56-12.35 0-7.362-5.424-11.672-13.947-11.672h-3.584V29.27h3.971zm-12.253 0h3.874V5.247h-3.874V1.325h11.962c11.333 0 18.356 6.102 18.356 15.643 0 9.638-6.635 16.224-18.646 16.224h-11.672V29.27zM264.98 29.27h4.311v-8.573l-9.25-15.449h-3.342V1.325h11.284v3.923h-3.051l6.634 11.72 6.684-11.72h-3.245V1.325h11.284v3.923h-3.341l-9.251 15.401v8.62h4.311v3.923H264.98z" fill="#D50037"/><path d="M3.528 45.513c1.134 0 1.82-.535 1.82-1.389 0-.916-.737-1.4-1.985-1.4H2.165v2.79h1.363zm-.242-3.719c1.197 0 1.821-.548 1.821-1.375 0-.803-.637-1.274-1.783-1.274H2.165v2.65h1.121zM0 45.488h1.019V39.17H0v-1.03h3.35c2.025 0 2.929.98 2.929 2.151 0 .994-.624 1.644-1.49 1.924 1.083.305 1.732.93 1.732 1.986 0 1.351-1.095 2.318-3.018 2.318H0v-1.03zM20.195 42.33c0-1.872-1.287-3.273-3.068-3.273-1.797 0-3.083 1.388-3.083 3.273 0 1.87 1.286 3.272 3.083 3.272 1.78 0 3.068-1.388 3.068-3.272m-7.335 0c0-2.458 1.783-4.343 4.292-4.343 2.47 0 4.227 1.898 4.227 4.343 0 2.457-1.783 4.342-4.291 4.342-2.47 0-4.228-1.898-4.228-4.342M29.818 40.19v5.298h1.07v1.032h-3.21v-1.032h1.02V39.17h-1.02V38.14h2.013l4.533 5.909V39.17h-1.07V38.14h3.172v1.03h-.98v7.375l-.637.013zM42.384 45.488h1.019V39.17h-1.02v-1.03h6.152v2.19H47.44v-1.172h-2.878v2.598h2.649v.993h-2.65v2.75h2.879v-1.17h1.108v2.19h-6.164zM62.665 44.596c0-.611.356-1.031.853-1.031.395 0 .739.317.739.738a.66.66 0 01-.383.611c.078.318.498.701 1.262.701.395 0 .751-.115 1.006-.369.305-.319.446-.828.446-1.542v-4.533h-1.287v-1.032h3.388v1.032h-.968v4.546c0 .981-.255 1.783-.738 2.267-.472.458-1.096.688-1.847.688-1.362 0-2.471-.905-2.471-2.076M82.185 42.33c0-1.872-1.287-3.273-3.068-3.273-1.797 0-3.083 1.388-3.083 3.273 0 1.87 1.286 3.272 3.083 3.272 1.78 0 3.068-1.388 3.068-3.272m-7.335 0c0-2.458 1.783-4.343 4.292-4.343 2.47 0 4.227 1.898 4.227 4.343 0 2.457-1.783 4.342-4.291 4.342-2.47 0-4.228-1.898-4.228-4.342M89.669 45.488h1.095V39.17h-1.095v-1.03h3.324v1.03H91.91v6.318h1.082v1.03h-3.324zM101.332 40.19v5.298h1.07v1.032h-3.21v-1.032h1.019V39.17h-1.02V38.14h2.014l4.533 5.909V39.17h-1.07V38.14h3.172v1.03h-.981v7.375l-.636.013zM115.655 45.488h1.095v-6.355h-1.872v1.337h-1.095v-2.33h7.093v2.33h-1.096v-1.337h-1.871v6.355h1.095v1.03h-3.349zM134.968 44.838c0-.535.318-.879.764-.879.459 0 .764.344.764.701a.93.93 0 01-.165.547c.292.254.852.446 1.527.446 1.019 0 1.669-.497 1.669-1.325 0-.79-.764-1.159-1.655-1.489-1.503-.56-2.586-1.07-2.586-2.56 0-1.312 1.045-2.293 2.662-2.293 1.465 0 2.61.79 2.61 1.72 0 .521-.331.828-.738.828-.484 0-.777-.358-.777-.74 0-.203.063-.33.141-.445-.23-.205-.727-.357-1.248-.357-.931 0-1.491.497-1.491 1.197 0 .803.752 1.147 1.707 1.516 1.439.535 2.521 1.056 2.521 2.534 0 1.53-1.197 2.432-2.84 2.432-1.642 0-2.865-.929-2.865-1.833M152.246 40.827c0-1.032-.853-1.656-1.974-1.656h-1.082v3.388c.216.013.56.026 1.107.026 1.211 0 1.949-.663 1.949-1.758zm-5.234 4.662h1.018V39.17h-1.018v-1.032h3.285c1.771 0 3.133 1.032 3.133 2.688 0 1.795-1.298 2.775-3.208 2.775-.434 0-.816-.011-1.032-.024v1.91h1.095v1.032h-3.273v-1.031zM159.502 45.488h1.095V39.17h-1.095v-1.03h3.324v1.03h-1.082v6.318h1.082v1.03h-3.324zM171.164 40.19v5.298h1.07v1.032h-3.21v-1.032h1.019V39.17h-1.019V38.14h2.013l4.533 5.909V39.17h-1.07V38.14h3.172v1.03h-.981v7.375l-.636.013zM183.73 45.488h1.019V39.17h-1.019v-1.03h6.151v2.19h-1.095v-1.172h-2.878v2.598h2.649v.993h-2.649v2.75h2.878v-1.17h1.108v2.19h-6.164zM204.126 45.488h1.045l.293-6.318h-1.096v-1.03h2.152l2.675 5.259 2.674-5.26h2.127v1.03h-1.082l.28 6.319h1.057v1.03h-3.235v-1.03h1.031l-.191-5.21-2.573 4.968h-.216l-2.572-4.967-.191 5.209h1.032v1.03h-3.21zM221.059 43.565V39.17h-.993v-1.03h3.196v1.03h-1.057v4.318c0 1.415.713 2.127 1.936 2.127 1.235 0 1.961-.675 1.961-2.09V39.17h-1.057v-1.03h3.184v1.03h-1.006v4.356c0 2.076-1.21 3.145-3.082 3.145-1.898 0-3.082-1.07-3.082-3.106M234.134 44.838c0-.535.318-.879.764-.879.459 0 .764.344.764.701a.923.923 0 01-.166.547c.293.254.853.446 1.528.446 1.019 0 1.669-.497 1.669-1.325 0-.79-.764-1.159-1.655-1.489-1.503-.56-2.586-1.07-2.586-2.56 0-1.312 1.044-2.293 2.662-2.293 1.465 0 2.61.79 2.61 1.72 0 .521-.331.828-.738.828-.484 0-.777-.358-.777-.74 0-.203.063-.33.141-.445-.23-.205-.727-.357-1.248-.357-.931 0-1.491.497-1.491 1.197 0 .803.752 1.147 1.707 1.516 1.439.535 2.521 1.056 2.521 2.534 0 1.53-1.197 2.432-2.84 2.432-1.642 0-2.865-.929-2.865-1.833M246.293 42.355c0-2.56 1.974-4.368 4.318-4.368 1.833 0 3.182 1.044 3.182 2.05 0 .534-.355.904-.815.904-.471 0-.815-.306-.815-.764 0-.216.103-.395.218-.484-.23-.28-.855-.65-1.797-.65-1.796 0-3.107 1.478-3.107 3.299 0 1.746 1.274 3.273 3.171 3.273.994 0 1.809-.408 2.508-1.096l.728.804c-.829.865-2.014 1.349-3.236 1.349-2.585 0-4.355-1.885-4.355-4.317M260.208 45.488h1.019V39.17h-1.019v-1.03h3.311v1.03h-1.133v6.33h2.649v-1.235h1.108v2.254h-5.935zM272.329 45.488h1.019V39.17h-1.019v-1.03h6.151v2.19h-1.095v-1.172h-2.878v2.598h2.649v.993h-2.649v2.75h2.878v-1.17h1.108v2.19h-6.164zM55.484 43.132h1.666v-1.666h-1.666zM126.26 43.132h1.666v-1.666h-1.666zM195.914 43.132h1.666v-1.666h-1.666z" fill="#323E48"/></g></svg>