<?xml version="1.0" encoding="UTF-8"?>
<svg version="1.1" viewBox="0 0 2048 1250" width="1280" height="1280" xmlns="http://www.w3.org/2000/svg">
<path transform="translate(506,161)" d="m0 0h223v227l-13-3h-5l-10 17-14 24-6 10-1 1-19-1h-38l-19 1-14-24-15-26-1-3-22 5-33 11-20 9-16 8-22 13 4 17 11 42-2 4-10 8-10 9-12 11-9 11-8 9-2 3-17-4-42-11h-2l-9 15-14 27-10 25-7 21-5 20v5l18 10 27 16 7 4-1 22v34l1 11v10l-23 13-25 15-5 2 4 18-1 1h-227v-221l16 2h13l20-4 20-8 19-11 14-11 14-12 12-12 7-8 11-13 7-9 10 3 36 12 29 6 21 2h11l19-2 19-5 16-8 11-8 8-8 9-14 6-15 4-18 1-10v-19l-2-19-5-24-6-20-8-22-4-10v-3l13-10 14-12 22-22 13-17 10-16 8-17 5-17 1-5z" fill="#8F9FBD"/>
<path transform="translate(782,161)" d="m0 0h154l24 1 18 3 16 5 12 5 11 7 11 9 8 9 8 13 6 15 4 15 2 17v21l-3 18-6 18-7 13-7 9-7 7-14 8-6 2h-5v2l9 2 10 4 13 9 11 11 9 14 7 17 3 14 1 8v26l-3 23-6 21-8 16-8 11-11 11-14 9-16 7-20 5-13 2-14 1h-185v-407z" fill="#1D285C"/>
<path transform="translate(1456,158)" d="m0 0h65l31 2 33 4 26 5 18 5 2 1v71h-12l-55-3-32-1h-59l-9 2-8 5-4 5-3 9v36l4 11 5 5 10 4 5 1 80 1 17 2 15 4 16 8 11 8 10 10 9 14 6 13 5 16 3 17 1 11v45l-2 19-4 18-6 16-7 12-8 10-7 7-14 9-16 7-16 4-16 2h-75l-33-2-24-3-25-5-21-6-3-2v-70l2-1 64 4 27 1h65l12-3 9-6 4-7 2-8v-26l-2-11-5-8-10-5-4-1-17-1-69-1-18-3-18-6-13-7-10-8-8-8-7-10-8-16-5-16-3-19v-72l3-17 5-16 7-14 10-13 9-8 13-8 14-6 21-5z" fill="#1D285C"/>
<path transform="translate(1164,161)" d="m0 0 53 1 57 2 51 3 28 3v75l-1 1-160 1-10 2-7 4-4 5-2 7-1 59h18l131 5 9 1v75l-13 1-144 5v53l3 10 6 7 8 3 8 1 158 1v75l-13 2-59 4-98 4h-20l-22-3-17-5-15-8-11-9-10-14-5-11-4-15-1-7v-261l2-14 5-16 7-13 9-11 12-9 14-7 19-5z" fill="#1D285C"/>
<path transform="translate(1651,161)" d="m0 0h306l1 2-1 81h-109v324l-1 1h-90l-1-324-106-1v-82z" fill="#1D285C"/>
<path transform="translate(92,161)" d="m0 0h202l14 15 7 8 9 11 11 14-2 16-7 36-9 36-8 26-12 33-3 3-29 11-36 12-34 9-35 7-17 3h-9l-11-9-13-11-14-12-4-4z" fill="#8F9FBD"/>
<path transform="translate(1317,593)" d="m0 0h39l17 3 13 5 11 8 8 10 7 15 5 19 2 15 1 14v32l-2 21-4 19-5 13-6 10-8 9-11 7-11 4-17 3h-41l-17-3-12-5-10-7-7-8-8-15-5-19-3-25v-38l2-20 4-19 6-16 7-11 8-8 10-6 10-4z" fill="#1D285C"/>
<path transform="translate(987,593)" d="m0 0h39l17 3 12 5 9 6 7 7 8 14 6 18 3 17 1 10v50l-3 21-5 18-7 13-9 10-8 6-11 5-20 4h-41l-17-3-13-5-9-7-9-10-7-15-4-15-3-21v-51l3-22 5-17 4-10 7-10 5-6 14-9 13-4z" fill="#1D285C"/>
<path transform="translate(1100,594)" d="m0 0h95l16 3 12 5 9 7 7 9 4 9 3 15v13l-3 14-6 12-7 7-8 4h-3v2l6 1 10 6 7 8 6 12 2 10v17l-3 16-5 12-9 10-8 6-14 5-11 2h-100z" fill="#1D285C"/>
<path transform="translate(766,594)" d="m0 0h99l16 3 14 7 9 9 8 16 3 15v32l-3 15-4 10-6 9-8 6-9 4 7 16 16 34 13 28v1h-52l-5-11-25-62v-2l-23-3-4-1v79h-46z" fill="#1D285C"/>
<path transform="translate(638,622)" d="m0 0h10l17 3 16 6 13 8 11 9 10 12 9 17 4 13 1 5v31l-5 17-7 14-10 13-11 10-11 7-10 5-17 5-6 1h-17l-16-3-13-5-13-7-11-9-7-7-7-10-8-16-4-14-1-6v-21l4-18 8-17 8-11 7-8 13-10 15-8 19-5z" fill="#8F9FBD"/>
<path transform="translate(1845,592)" d="m0 0h26l26 2 19 3 14 4v35l-5 1-44-2h-31l-8 3-3 5-1 4v14l3 9 5 3 6 1 46 1 10 3 11 6 8 9 7 14 3 14v33l-3 15-7 14-6 7-10 6-12 4-5 1h-54l-18-2-21-5-3-1v-36l26 1 25 1h28l9-3 4-6v-20l-2-6-6-2-38-1-16-2-11-4-9-6-8-9-6-13-2-9-1-13v-20l2-17 5-13 8-10 9-6 10-4 9-2z" fill="#1D285C"/>
<path transform="translate(165,176)" d="m0 0h27l14 4 15 8 12 11 6 7 7 12 4 11 2 11v18l-3 14-8 17-9 11-9 8-14 8-15 5-5 1h-19l-17-4-16-8-11-9-8-10-6-10-5-15-2-10v-15l3-14 5-12 6-10 9-10 10-8 16-8z" fill="#FEFEFE"/>
<path transform="translate(401,323)" d="m0 0 2 2 9 29 5 24 2 19v11l-3 20-5 15-7 13-12 13-10 7-16 7-18 4-17 1-22-2-25-5-23-7-2-1 1-4 12-20 12-21 13-26 13-30 15-7 27-13 23-13 15-9z" fill="#8F9FBD"/>
<path transform="translate(1701,592)" d="m0 0h37l24 3 23 6 1 1v36l-36-3-28-1-15 2-8 5-5 10-3 15-1 9v42l3 19 4 10 6 7 9 4 4 1h42l28-1v36l-18 5-13 2-12 1h-37l-16-3-10-4-10-7-8-8-8-14-5-13-4-20-2-19v-32l2-23 4-20 5-13 7-12 10-10 16-8z" fill="#1D285C"/>
<path transform="translate(1426,594)" d="m0 0h155v42h-56v163h-45v-163h-54z" fill="#1D285C"/>
<path transform="translate(128,421)" d="m0 0 5 2 13 10 24 16 14 9 21 12 20 11-4 6-7 7-7 8-14 13-13 10-13 8-14 7-16 5-11 2h-13l-16-4-5-2v-116z" fill="#8F9FBD"/>
<path transform="translate(343,830)" d="m0 0h31l13 4 8 6 6 8 5 14 2 12 1 11v16l-2 18-5 16-6 9-6 5-9 4-9 2h-29l-14-4-9-7-6-9-4-12-2-11v-37l3-16 5-12 6-8 10-6z" fill="#72C59A"/>
<path transform="translate(240,829)" d="m0 0h9l16 2 10 4 8 6 6 10 4 12 2 13v35l-4 18-6 12-5 6-12 6-10 2h-28l-11-3-8-4-7-7-5-10-4-18-1-12v-14l2-20 3-12 5-10 6-7 9-5 10-3z" fill="#72C59A"/>
<path transform="translate(1468,969)" d="m0 0h31l13 4 9 6 7 11 4 13 2 16v27l-2 14-5 15-6 8-6 5-12 5-7 1h-25l-10-2-9-4-8-7-6-10-4-17-1-11v-22l2-17 4-13 6-10 8-7 11-4z" fill="#72C59A"/>
<path transform="translate(1668,969)" d="m0 0h33l10 3 8 5 7 8 5 11 3 13 1 12v24l-3 19-5 12-6 8-5 4-9 4-11 2h-25l-12-3-8-4-5-4-6-10-4-12-2-15v-26l3-21 5-12 6-8 8-6 8-3z" fill="#72C49A"/>
<path transform="translate(857,393)" d="m0 0h86l11 4 8 7 6 9 4 14 1 7v18l-3 15-5 10-5 6-12 6-5 1h-86l-1-15v-68z" fill="#fcfcfc"/>
<path transform="translate(359,161)" d="m0 0h112l4 20v10l-4 19-6 15-9 16-9 12-9 11-22 22-6 4-6-10-10-18-12-19-15-22-12-16 1-16z" fill="#8F9FBD"/>
<path transform="translate(116,830)" d="m0 0h28l13 1 11 4 6 5 5 8 3 11v9l-3 10-4 6-6 5-2 1 8 5 6 8 3 8v14l-3 12-4 6-8 7-11 4-8 1h-56l-1-1v-123z" fill="#72C59A"/>
<path transform="translate(1588,594)" d="m0 0h46v205h-46z" fill="#1D285C"/>
<path transform="translate(1610,830)" d="m0 0h41l14 3 9 6 6 10 3 12v19l-3 13-6 9-8 4h-2l16 33 6 13v3h-26l-6-1-6-16-11-27v-2l-10-1-7-1v47l-1 1-26-1v-123z" fill="#72C59A"/>
<path transform="translate(673,830)" d="m0 0h23l9 15 13 22 12 20 8 13 1-69 16-1h11l1 1v123l-10 1h-11l-8-1-9-16-10-16-17-28-5-8-1 68-1 1h-24l-3-1v-123z" fill="#72C59A"/>
<path transform="translate(1300,830)" d="m0 0h15l8 13 16 27 18 30 1-69h28v123l-1 1h-26l-7-10-13-22-16-26-7-11-1 68-1 1h-26l-1-1v-123z" fill="#72C59A"/>
<path transform="translate(1033,830)" d="m0 0h19l3 3 10 17 30 50 1-69 27-1 1 1v123l-1 1h-24l-4-2-16-26-12-20-13-21-1 68-1 1h-21l-6-1v-123z" fill="#72C59A"/>
<path transform="translate(1754,830)" d="m0 0h14l6 8 17 29 9 15 10 17 1 1 1-69h28v123l-1 1h-25l-3-1-8-14-17-28-16-26-1 68-1 1h-21l-6-1v-123z" fill="#72C59A"/>
<path transform="translate(425,969)" d="m0 0h27l10 16 16 27 13 22 3 5 2 1-1-4v-60l1-7h26l1 1v123h-28l-13-21-17-28-11-18-2-1v68h-28v-123z" fill="#72C59A"/>
<path transform="translate(1325,969)" d="m0 0h24l4 5 8 14 9 15 13 22 9 15 1-71h27l1 1v81l-1 42h-28l-16-27-13-21-12-19v-2h-2l1 4-1 65h-27v-123z" fill="#72C59A"/>
<path transform="translate(998,634)" d="m0 0h15l12 2 9 6 4 6 3 9 2 13 1 14v26l-2 21-4 13-4 6-6 5-8 3-7 1h-15l-11-2-8-5-5-6-4-13-2-19v-30l2-21 3-12 4-8 6-5 8-3z" fill="#FBFBFC"/>
<path transform="translate(1329,634)" d="m0 0h14l12 2 8 5 4 5 4 9 3 21v43l-3 18-4 10-5 6-8 4-11 2h-14l-14-3-8-6-5-10-2-9-1-9v-47l3-20 4-10 7-7 8-3z" fill="#FBFCFC"/>
<path transform="translate(806,968)" d="m0 0 19 1 17 4v20l-1 1-31 1-2 1v6l7 11 14 19 6 8 4-1 7-7 8-7 4-1 8 10-1 5-8 14-6 8 4 6 14 19 5 7h-33l-10-13-4 2-11 8-10 4-8 1-11-2-10-5-7-7-6-12-1-4v-11l4-12 8-10 10-9 2-2-11-18-1-3v-12l4-9 8-7 7-3z" fill="#72C49A"/>
<path transform="translate(857,240)" d="m0 0h80l9 2 8 5 7 8 4 9 1 5v21l-3 10-6 9-8 6-9 3-82 1-1-1-1-53z" fill="#FCFCFC"/>
<path transform="translate(1216,969)" d="m0 0h26l1 1 1 50 35 1v-51l5-1h22l1 1v123h-28v-47h-36v47h-28v-123z" fill="#72C59A"/>
<path transform="translate(813,829)" d="m0 0h28l18 3 11 3v21h-9l-25-2h-12l-7 2-4 4-3 7-1 6v40l3 10 4 4 3 1h13l8-4h2l1-9v-11h-13v-17l5-3 11-2h25l1 1v60l-1 12h-18l-3-1-5-6-5 2-8 4-4 1h-20l-9-4-7-5-6-10-3-8-3-17v-37l3-17 5-12 9-10 8-4z" fill="#72C49A"/>
<path transform="translate(1779,968)" d="m0 0h27l19 3 9 2 1 1v21l-3 1-31-3h-12l-8 3-4 4-3 11v42l4 11 6 3h13l10-5 1-19h-13v-18l10-3 7-1h24l1 2v31l-1 39h-20l-6-6-5 2-8 4-10 2-13-1-9-3-10-9-6-12-3-12-1-8v-38l3-16 5-12 7-8 5-4 8-3z" fill="#72C59A"/>
<path transform="translate(1170,829)" d="m0 0h28l18 3 11 3v21l-2 1-31-3h-13l-8 3-4 5-3 10v41l3 10 4 4 3 1h13l10-5 1-2v-16l-13-1v-17l5-3 12-2h24l1 3-1 70h-19l-5-5-4-2-8 5-6 2h-21l-10-4-7-6-7-14-3-12-1-7v-39l3-16 5-12 7-8 7-5z" fill="#72C59A"/>
<path transform="translate(1885,829)" d="m0 0h29l18 3 11 3v21l-2 1-31-3h-13l-8 3-4 5-3 10-1 13v15l2 18 4 8 5 2h13l10-5 1-18-13-1v-18l10-3 7-1h23l1 1v72h-19l-7-7-4 1-6 4-7 2h-20l-10-4-7-6-7-14-3-12-1-8v-37l3-17 5-12 7-8 7-5z" fill="#72C49A"/>
<path transform="translate(122,968)" d="m0 0h20l19 2 13 3 1 1v22l-19-1h-31l-4 3-1 5v7l2 5 5 2 29 1 10 4 7 6 5 10 2 11v14l-3 14-4 7-8 7-12 4h-28l-21-3-8-2-1-3 1-19h49l5-3 1-4v-7l-1-6-6-1-27-1-11-4-8-7-4-7-2-7-1-8v-13l2-12 5-10 8-6 9-3z" fill="#72C59A"/>
<path transform="translate(354,969)" d="m0 0h14l39 2 6 1v23l-1 1-51 1-3 3v18l42 2 5 1v22l-1 1-46 2v18l1 2 3 1 51 1v23l-18 2-23 1h-21l-10-3-9-8-3-9v-85l4-9 4-5 10-5z" fill="#72C59A"/>
<path transform="translate(953,830)" d="m0 0h15l38 2 6 1v24l-52 1-2 1-1 4v16l46 2 1 1v23l-47 2v16l2 4 3 1 50 1v23l-2 1-35 2h-26l-12-5-6-7-2-5-1-6v-78l2-9 4-6 7-6z" fill="#72C59A"/>
<path transform="translate(1049,969)" d="m0 0h17l37 2 6 1v23l-1 1-51 1-3 3v18l43 2 4 1v22l-1 1-46 2v17l4 4 51 1v23l-19 2-23 1h-20l-9-3-6-4-4-5-3-9v-83l3-9 5-6 7-4z" fill="#72C59A"/>
<path transform="translate(1521,830)" d="m0 0h17l37 2 6 1v23l-1 1-51 1-3 2v19l46 2 1 1v22l-1 1-47 2 1 18 5 3 50 1v23l-1 1-37 2h-24l-10-3-8-7-3-6-1-6v-81l4-11 9-8z" fill="#72C59A"/>
<path transform="translate(1428,830)" d="m0 0 35 1 16 1 6 1v23l-1 1-51 1-3 3-1 19h21l25 1 2 1v23l-47 2v17l2 3 3 1 50 1v23l-3 1-34 2h-26l-10-4-7-6-3-6-1-5v-81l2-9 7-8 6-4z" fill="#72C49A"/>
<path transform="translate(655,969)" d="m0 0h16l39 2 6 2v22l-1 1-54 1-1 20 1 1 42 2 5 1v23l-45 2-3 1v11l1 8 4 1 51 1v20l-1 3-4 1-38 2h-19l-10-3-9-8-3-8v-86l4-10 7-6 7-3z" fill="#72C49A"/>
<path transform="translate(451,829)" d="m0 0h20l24 3 9 2v22h-48l-5 2-2 6 1 10 3 3 3 1 29 1 11 4 8 9 4 10 1 6v18l-2 10-5 10-8 6-8 3-6 1h-25l-18-2-12-3v-22l3-1 16 1h31l4-1 1-4v-12l-2-3-3-1-29-1-11-4-9-8-4-9-1-5v-26l3-11 8-9 8-4z" fill="#72C59A"/>
<path transform="translate(1152,968)" d="m0 0h24l14 2 14 4v22l-17-1h-30l-6 4-3 7-2 14v21l2 14 4 8 3 3 7 2h42v21l-8 3-21 3h-18l-13-3-9-5-8-8-5-11-4-18v-39l3-16 7-14 9-8 10-4z" fill="#72C49A"/>
<path transform="translate(225,968)" d="m0 0h24l18 3 9 3v22l-17-1h-30l-6 4-3 7-2 16v19l2 14 4 8 6 4 4 1h42v21l-9 3-10 2-11 1h-17l-13-3-9-5-7-7-6-12-3-11-1-7v-38l3-16 5-12 9-10 12-5z" fill="#72C59A"/>
<path transform="translate(569,968)" d="m0 0h24l19 3 9 3v22l-17-1h-30l-6 4-3 7-2 20v12l2 17 4 8 6 4 3 1h43v21l-8 3-20 3h-18l-14-3-10-6-7-8-5-11-3-11-1-8v-36l3-16 4-10 6-8 8-6z" fill="#72C59A"/>
<path transform="translate(1846,969)" d="m0 0h30l4 9 17 45v2h2l1-5 20-50 1-1h29l1 2-15 32-15 33-9 20-1 37h-28l-1-37-14-34-15-35-7-16z" fill="#72C59A"/>
<path transform="translate(922,969)" d="m0 0h92l1 1v11l-1 14h-33v98h-28v-98h-32v-25z" fill="#72C59A"/>
<path transform="translate(518,831)" d="m0 0h94v24l-1 1-32 1-1 98h-21l-6-1-1-97-31-1-1-1z" fill="#72C59A"/>
<path transform="translate(1547,969)" d="m0 0h27l1 1v78l1 16 4 3 44 1v25h-59l-9-4-5-5-3-5-1-4z" fill="#72C59A"/>
<path transform="translate(282,383)" d="m0 0 3 1-8 17-12 22-9 16-12 18-5 7-6-1-20-10-23-13-22-14-11-8 4-2 38-8 31-8 41-13z" fill="#8F9FBD"/>
<path transform="translate(350,231)" d="m0 0 5 5 13 20 15 26 10 20-2 4-23 15-26 15-20 10-2-1 12-36 9-34 8-38z" fill="#8F9FBD"/>
<path transform="translate(1702,830)" d="m0 0 23 1v123l-1 1h-26l-1-1v-123z" fill="#72C59A"/>
<path transform="translate(290,969)" d="m0 0h25v124h-28v-123z" fill="#72C59A"/>
<path transform="translate(624,831)" d="m0 0h28v123l-1 1h-16l-11-1z" fill="#72C59A"/>
<path transform="translate(1259,830)" d="m0 0h11l1 1v123l-1 1-26-1v-123z" fill="#72C59A"/>
<path transform="translate(1677,994)" d="m0 0h15l9 4 4 7 2 12v29l-2 11-5 8-6 3-7 1h-8l-9-3-5-5-2-6-1-7v-32l2-11 5-8z" fill="#FEFEFE"/>
<path transform="translate(351,855)" d="m0 0h14l8 3 4 4 3 11 1 9v21l-2 14-5 8-6 4-14 1-9-2-5-4-3-7-2-18v-11l1-15 3-10 4-5z" fill="#FEFEFE"/>
<path transform="translate(1476,994)" d="m0 0h15l9 4 4 7 2 11v31l-2 10-4 7-4 3-8 2h-10l-9-3-5-6-3-13v-29l2-12 3-6 6-5z" fill="#FEFEFE"/>
<path transform="translate(238,855)" d="m0 0h14l8 3 4 5 2 5 1 6v37l-3 10-5 6-4 2-6 1h-8l-9-2-6-5-3-9-1-13v-18l2-15 4-9 5-3z" fill="#FEFEFE"/>
<path transform="translate(812,634)" d="m0 0h45l6 3 4 5 2 6v23l-3 8-4 4-8 2h-42z" fill="#FAFBFB"/>
<path transform="translate(1146,711)" d="m0 0h45l8 5 4 8 1 4v15l-3 9-4 5-9 3h-42l-1-2v-46z" fill="#F9F9FB"/>
<path transform="translate(1146,634)" d="m0 0h43l6 3 4 5 2 7v9l-3 8-5 5-5 2h-42l-1-1v-37z" fill="#FAFBFB"/>
<path transform="translate(1621,855)" d="m0 0h27l5 3 2 6v13l-3 6-4 2h-27l-1-1v-28z" fill="#FEFEFE"/>
<path transform="translate(122,901)" d="m0 0h26l6 4 2 5v11l-2 5-5 4h-27l-1-1v-27z" fill="#FEFEFE"/>
<path transform="translate(121,855)" d="m0 0h27l5 5 1 2v9l-3 5-4 2h-26z" fill="#FEFEFE"/>
<path transform="translate(801,1041)" d="m0 0 5 5 9 12-6 7-4 3h-8l-6-5-2-4 1-7 7-8z" fill="#FEFEFE"/>
<path transform="translate(319,161)" d="m0 0h20v12l-1 9-6-5-7-8z" fill="#8FA0BD"/>
<path transform="translate(92,390)" d="m0 0 8 6 8 7-1 2h-15z" fill="#8FA0BC"/>
</svg>
